<?xml version="1.0" encoding="UTF-8" standalone="no"?>
<svg
   version="1.1"
   width="471.41367"
   height="485.92615"
   id="svg261"
   sodipodi:docname="MyTodo.svg"
   inkscape:version="1.3.2 (091e20e, 2023-11-25, custom)"
   xmlns:inkscape="http://www.inkscape.org/namespaces/inkscape"
   xmlns:sodipodi="http://sodipodi.sourceforge.net/DTD/sodipodi-0.dtd"
   xmlns="http://www.w3.org/2000/svg"
   xmlns:svg="http://www.w3.org/2000/svg">
  <defs
     id="defs261" />
  <sodipodi:namedview
     id="namedview261"
     pagecolor="#ffffff"
     bordercolor="#000000"
     borderopacity="0.25"
     inkscape:showpageshadow="2"
     inkscape:pageopacity="0.0"
     inkscape:pagecheckerboard="0"
     inkscape:deskcolor="#d1d1d1"
     inkscape:zoom="1.6172306"
     inkscape:cx="499.61955"
     inkscape:cy="221.67526"
     inkscape:window-width="2560"
     inkscape:window-height="1406"
     inkscape:window-x="-11"
     inkscape:window-y="-11"
     inkscape:window-maximized="1"
     inkscape:current-layer="svg261" />
  <path
     d="m 71.413681,34.400507 c 0.0093,0.765542 0.01869,1.531084 0.02832,2.319824 0.05418,3.519009 0.137734,7.036756 0.22168,10.555176 0.01418,1.203984 0.02836,2.407969 0.04297,3.648437 0.269387,9.913424 2.015659,18.48482 8.925782,25.941407 6.808534,5.867881 13.805678,7.915296 22.640629,7.808593 6.42861,-0.559704 11.18816,-2.864899 15.51562,-7.648437 9.34851,-12.215042 7.94059,-26.567978 8.625,-41.625 69.63,0 139.26,0 211,0 0.33,8.58 0.66,17.16 1,26 3.77193,9.429824 6.9901,16.744009 16.1875,21.5625 7.19851,2.697889 15.50862,2.681647 22.6875,-0.0625 8.03304,-4.200764 11.96963,-11.323178 15.125,-19.5 0.33,-0.66 0.66,-1.32 1,-2 0.15411,-2.030748 0.24982,-4.066064 0.31641,-6.101563 0.0419,-1.211718 0.0838,-2.423437 0.12695,-3.671875 0.059,-1.906523 0.059,-1.906523 0.11914,-3.851562 0.0432,-1.27875 0.0864,-2.5575 0.13086,-3.875 0.10634,-3.166554 0.20837,-6.333188 0.30664,-9.5 18.69843,-0.502173 35.10809,5.206628 49,18 12.33902,12.009435 21.78298,27.53532 22.62362,45.059634 0.0245,2.472977 0.0225,4.946319 -0.002,7.419289 0.004,1.39034 0.0109,2.78067 0.0194,4.17098 0.0168,3.77411 0.003,7.54755 -0.0165,11.32162 -0.0155,4.08796 -0.002,8.17585 0.008,12.26381 0.0145,7.98914 0.002,15.97801 -0.0191,23.96712 -0.0241,9.31555 -0.0223,18.63105 -0.0197,27.94663 0.004,16.62606 -0.0171,33.252 -0.0512,49.87802 -0.0331,16.11234 -0.0473,32.22454 -0.041,48.33691 0.007,17.57399 0.004,35.14793 -0.0154,52.72191 -0.002,1.39526 -0.002,1.39526 -0.003,2.8187 -0.002,1.86788 -0.004,3.73575 -0.006,5.60362 -0.007,6.48522 -0.008,12.97042 -0.006,19.45565 0.001,7.90666 -0.008,15.81322 -0.0319,23.71984 -0.0118,4.02989 -0.019,8.05964 -0.0132,12.08954 0.005,3.69544 -0.004,7.39058 -0.0233,11.08597 -0.007,1.95584 6.7e-4,3.91172 0.009,5.86755 -0.15105,19.61183 -7.74508,35.50144 -21.41172,49.27321 -6.05432,5.66905 -12.42588,9.67886 -20,13 -0.75539,0.35836 -1.51078,0.71672 -2.28906,1.08594 -12.09793,5.38135 -25.3297,6.364 -38.3971,6.30174 -1.40071,0.004 -2.80143,0.01 -4.20214,0.0163 -3.79816,0.0143 -7.5961,0.0103 -11.39428,0.003 -4.11596,-0.005 -8.23189,0.008 -12.34784,0.018 -8.04307,0.0171 -16.08606,0.018 -24.12914,0.0128 -6.54173,-0.004 -13.08343,-0.003 -19.62516,0.003 -1.40109,10e-4 -1.40109,10e-4 -2.83048,0.002 -1.89803,0.002 -3.79606,0.003 -5.69409,0.005 -17.76245,0.0137 -35.52485,0.008 -53.2873,-0.003 -16.22243,-0.01 -32.44475,0.003 -48.66717,0.0269 -16.69314,0.0244 -33.38622,0.034 -50.07938,0.0273 -9.35763,-0.003 -18.71518,-0.001 -28.0728,0.0163 -7.96399,0.0148 -15.92783,0.0153 -23.89181,-0.002 -4.056768,-0.008 -8.113272,-0.0107 -12.170029,0.005 -27.286991,0.096 -49.397241,-2.3384 -70.840189,-21.2047 -4.206148,-4.31202 -6.98916,-9.42698 -9.8320314,-14.6875 -0.377212,-0.69537 -0.754424,-1.39074 -1.143066,-2.10718 -5.252297,-10.12506 -6.547014,-19.18819 -6.487885,-30.54733 -0.0035,-1.40251 -0.0082,-2.80503 -0.01418,-4.20753 -0.01246,-3.83085 -0.0064,-7.66147 0.003,-11.49232 0.0068,-4.14053 -0.0037,-8.28103 -0.01194,-12.42155 -0.01332,-8.10271 -0.010469995,-16.20534 -0.0018,-24.30806 0.0068,-6.58815 0.0077,-13.17627 0.0044,-19.76442 -4.6e-4,-0.93881 -9.2e-4,-1.87761 -0.0014,-2.84486 -9.6e-4,-1.90738 -0.0019,-3.81475 -0.0029,-5.72213 -0.008499995,-17.87437 0.0013,-35.7487 0.0174,-53.62307 0.0134,-15.32233 0.01108,-30.64459 -0.0028,-45.96692 -0.01607,-17.8087 -0.022369995,-35.61736 -0.01316,-53.42607 9.55e-4,-1.90084 0.0019,-3.80169 0.0028,-5.70254 4.63e-4,-0.93516 9.25e-4,-1.87031 0.0014,-2.83381 0.0026,-6.57584 -0.0018,-13.15165 -0.0088,-19.72749 -0.0084,-8.02022 -0.0061,-16.04035 0.0098,-24.06057 0.0079,-4.08859 0.01102,-8.17704 0.0011,-12.26563 -0.009,-3.74929 -0.0039,-7.49829 0.01193,-11.24756 0.0049,-1.98492 -0.0048,-3.96985 -0.01517,-5.95475 0.121147,-18.609609 6.740047,-34.611982 19.5887714,-48.027293 14.205608,-13.986245 32.16215,-19.643514 51.8125,-19.375 z"
     fill="#e1e3de"
     id="path2" />
  <path
     d="m 71.413681,34.400507 c 0.0093,0.765542 0.01869,1.531084 0.02832,2.319824 0.05418,3.519009 0.137734,7.036756 0.22168,10.555176 0.01418,1.203984 0.02836,2.407969 0.04297,3.648437 0.269387,9.913424 2.015659,18.48482 8.925782,25.941407 6.808534,5.867881 13.805678,7.915296 22.640629,7.808593 6.42861,-0.559704 11.18816,-2.864899 15.51562,-7.648437 9.34851,-12.215042 7.94059,-26.567978 8.625,-41.625 69.63,0 139.26,0 211,0 0.33,8.58 0.66,17.16 1,26 3.77193,9.429824 6.9901,16.744009 16.1875,21.5625 7.19851,2.697889 15.50862,2.681647 22.6875,-0.0625 8.03304,-4.200764 11.96963,-11.323178 15.125,-19.5 0.33,-0.66 0.66,-1.32 1,-2 0.15411,-2.030748 0.24982,-4.066064 0.31641,-6.101563 0.0419,-1.211718 0.0838,-2.423437 0.12695,-3.671875 0.059,-1.906523 0.059,-1.906523 0.11914,-3.851562 0.0432,-1.27875 0.0864,-2.5575 0.13086,-3.875 0.10634,-3.166554 0.20837,-6.333188 0.30664,-9.5 18.69843,-0.502173 35.10809,5.206628 49,18 12.33902,12.009435 21.78298,27.53532 22.62362,45.059634 0.0245,2.472977 0.0225,4.946319 -0.002,7.419289 0.004,1.39034 0.0109,2.78067 0.0194,4.17098 0.0168,3.77411 0.003,7.54755 -0.0165,11.32162 -0.0155,4.08796 -0.002,8.17585 0.008,12.26381 0.0145,7.98914 0.002,15.97801 -0.0191,23.96712 -0.0241,9.31555 -0.0223,18.63105 -0.0197,27.94663 0.004,16.62606 -0.0171,33.252 -0.0512,49.87802 -0.0331,16.11234 -0.0473,32.22454 -0.041,48.33691 0.007,17.57399 0.004,35.14793 -0.0154,52.72191 -0.002,1.39526 -0.002,1.39526 -0.003,2.8187 -0.002,1.86788 -0.004,3.73575 -0.006,5.60362 -0.007,6.48522 -0.008,12.97042 -0.006,19.45565 0.001,7.90666 -0.008,15.81322 -0.0319,23.71984 -0.0118,4.02989 -0.019,8.05964 -0.0132,12.08954 0.005,3.69544 -0.004,7.39058 -0.0233,11.08597 -0.007,1.95584 6.7e-4,3.91172 0.009,5.86755 -0.15105,19.61183 -7.74508,35.50144 -21.41172,49.27321 -6.05432,5.66905 -12.42588,9.67886 -20,13 -0.75539,0.35836 -1.51078,0.71672 -2.28906,1.08594 -12.09793,5.38135 -25.3297,6.364 -38.3971,6.30174 -1.40071,0.004 -2.80143,0.01 -4.20214,0.0163 -3.79816,0.0143 -7.5961,0.0103 -11.39428,0.003 -4.11596,-0.005 -8.23189,0.008 -12.34784,0.018 -8.04307,0.0171 -16.08606,0.018 -24.12914,0.0128 -6.54173,-0.004 -13.08343,-0.003 -19.62516,0.003 -1.40109,10e-4 -1.40109,10e-4 -2.83048,0.002 -1.89803,0.002 -3.79606,0.003 -5.69409,0.005 -17.76245,0.0137 -35.52485,0.008 -53.2873,-0.003 -16.22243,-0.01 -32.44475,0.003 -48.66717,0.0269 -16.69314,0.0244 -33.38622,0.034 -50.07938,0.0273 -9.35763,-0.003 -18.71518,-0.001 -28.0728,0.0163 -7.96399,0.0148 -15.92783,0.0153 -23.89181,-0.002 -4.056768,-0.008 -8.113272,-0.0107 -12.170029,0.005 -27.286991,0.096 -49.397241,-2.3384 -70.840189,-21.2047 -4.206148,-4.31202 -6.98916,-9.42698 -9.8320314,-14.6875 -0.377212,-0.69537 -0.754424,-1.39074 -1.143066,-2.10718 -5.252297,-10.12506 -6.547014,-19.18819 -6.487885,-30.54733 -0.0035,-1.40251 -0.0082,-2.80503 -0.01418,-4.20753 -0.01246,-3.83085 -0.0064,-7.66147 0.003,-11.49232 0.0068,-4.14053 -0.0037,-8.28103 -0.01194,-12.42155 -0.01332,-8.10271 -0.010469995,-16.20534 -0.0018,-24.30806 0.0068,-6.58815 0.0077,-13.17627 0.0044,-19.76442 -4.6e-4,-0.93881 -9.2e-4,-1.87761 -0.0014,-2.84486 -9.6e-4,-1.90738 -0.0019,-3.81475 -0.0029,-5.72213 -0.008499995,-17.87437 0.0013,-35.7487 0.0174,-53.62307 0.0134,-15.32233 0.01108,-30.64459 -0.0028,-45.96692 -0.01607,-17.8087 -0.022369995,-35.61736 -0.01316,-53.42607 9.55e-4,-1.90084 0.0019,-3.80169 0.0028,-5.70254 4.63e-4,-0.93516 9.25e-4,-1.87031 0.0014,-2.83381 0.0026,-6.57584 -0.0018,-13.15165 -0.0088,-19.72749 -0.0084,-8.02022 -0.0061,-16.04035 0.0098,-24.06057 0.0079,-4.08859 0.01102,-8.17704 0.0011,-12.26563 -0.009,-3.74929 -0.0039,-7.49829 0.01193,-11.24756 0.0049,-1.98492 -0.0048,-3.96985 -0.01517,-5.95475 0.121147,-18.609609 6.740047,-34.611982 19.5887714,-48.027293 14.205608,-13.986245 32.16215,-19.643514 51.8125,-19.375 z m 50.999999,89.000003 c 0,0.66 0,1.32 0,2 -3.96,0 -7.92,0 -12,0 -0.0503,1.05316 -0.10055,2.10632 -0.15234,3.1914 -1.46366,6.57636 -6.60747,8.89352 -11.847659,12.8086 -0.33,-5.28 -0.66,-10.56 -1,-16 -39.105,0.495 -39.105,0.495 -79,1 0.33,24.75 0.66,49.5 1,75 11.846042,0.81129 11.846042,0.81129 23.683594,1.31641 1.066868,0.0312 1.066868,0.0312 2.155288,0.063 2.199474,0.0637 4.399031,0.1235 6.598618,0.18312 1.521492,0.0434 3.042976,0.087 4.564453,0.13086 3.665936,0.10518 7.331957,0.20692 10.998047,0.30664 -0.520834,1.95312 -1.041667,3.90625 -1.5625,5.85937 -0.570994,2.42962 -0.570994,2.42962 -0.4375,6.1406 -15.51,0 -31.02,0 -47,0 0,24.42 0,48.84 0,74 18.15,0 36.3,0 55,0 0.66,2.97 1.32,5.94 2,9 0.66,0.99 1.32,1.98 2,3 -2.576864,1.28843 -4.482188,1.16003 -7.367676,1.20532 -1.136712,0.0202 -2.273423,0.0404 -3.44458,0.0612 -1.198909,0.0165 -2.397818,0.0329 -3.633057,0.0499 -1.648267,0.028 -1.648267,0.028 -3.329833,0.0565 -4.116534,0.0685 -8.233204,0.12851 -12.349854,0.18958 -13.798125,0.21656 -13.798125,0.21656 -27.875,0.4375 -0.33,24.09 -0.66,48.18 -1,73 26.07,0 52.14,0 79,0 0,-12.54 0,-25.08 0,-38 3.959999,3.465 3.959999,3.465 7.999999,7 0.98356,0.6948 1.96711,1.38961 2.98047,2.10547 3.42698,4.91179 2.5353,10.39359 2.33203,16.20703 -0.0226,1.21752 -0.0451,2.43504 -0.0684,3.68945 -0.0588,3.0006 -0.141,5.9987 -0.24414,8.99805 1.37382,-0.0471 1.37382,-0.0471 2.77539,-0.0952 33.30685,-0.99319 33.30685,-0.99319 46.22461,6.0952 1.99954,1.00092 3.9994,2.0012 6,3 0,0.33 0,0.66 0,1 -4.06586,0.95417 -7.93861,1.18002 -12.10937,1.28125 -0.68508,0.0184 -1.37016,0.0368 -2.07599,0.0558 -2.18813,0.0584 -4.37634,0.11117 -6.56464,0.16296 -2.14543,0.0523 -4.29079,0.10603 -6.4361,0.16296 -1.97792,0.0523 -3.95597,0.10009 -5.93402,0.14759 -7.29856,0.28334 -14.58842,0.76053 -21.87988,1.18944 0,25.08 0,50.16 0,76 24.42,0 48.84,0 74,0 0,-25.41 0,-50.82 0,-77 5.94,1.485 5.94,1.485 12,3 0.33,24.42 0.66,48.84 1,74 24.42,0 48.84,0 74,0 0,-25.08 0,-50.16 0,-76 -5.61,-0.33 -11.22,-0.66 -17,-1 6.15997,-6.15997 13.07552,-7.37563 21.36328,-9.25391 2.83494,-0.65637 2.83494,-0.65637 5.63672,-2.74609 2.47755,-0.18357 4.84064,-0.25249 7.31714,-0.22705 0.74171,-2.9e-4 1.48342,-5.8e-4 2.2476,-8.9e-4 2.4512,10e-4 4.90209,0.017 7.35323,0.0326 1.69965,0.004 3.3993,0.007 5.09895,0.009 4.47332,0.008 8.94652,0.0273 13.41979,0.0494 4.5647,0.0205 9.12942,0.0296 13.69415,0.0397 8.95644,0.0215 17.91278,0.0556 26.86914,0.0977 -8e-4,-0.89599 -0.002,-1.79198 -0.002,-2.71512 -0.002,-8.50186 0.0245,-17.00305 0.0827,-25.50472 0.0289,-4.36941 0.0471,-8.73829 0.0398,-13.1078 -0.007,-4.22795 0.0162,-8.45487 0.0584,-12.68261 0.011,-1.60164 0.0119,-3.20339 0.002,-4.80503 -0.0618,-11.20906 1.70483,-19.15939 6.8191,-29.18518 0.96664,-2.12123 1.92559,-4.246 2.875,-6.375 0.70125,-1.52625 1.4025,-3.0525 2.125,-4.625 0.66,3.96 1.32,7.92 2,12 25.08,0 50.16,0 76,0 0,-24.42 0,-48.84 0,-74 -19.57965,-0.28863 -19.57965,-0.28863 -39.15942,-0.56812 -2.47421,-0.0382 -4.94841,-0.0766 -7.42261,-0.11547 -1.26083,-0.0165 -2.52165,-0.033 -3.82068,-0.0499 -7.24393,-0.1182 -14.3942,-0.47912 -21.59729,-1.26651 -1.92166,-4.22765 -2.30047,-7.1033 -3,-12 24.75,0 49.5,0 75,0 0.33,-25.08 0.66,-50.16 1,-76 -25.74,0 -51.48,0 -78,0 -0.33,20.79 -0.66,41.58 -1,63 -12.66569,-26.4828 -12.66569,-26.4828 -12.1875,-44.4375 0.007,-1.82225 0.009,-3.64453 0.006,-5.4668 0.003,-4.36772 0.0724,-8.7294 0.18164,-13.0957 -0.99218,0.0273 -1.98435,0.0546 -3.00659,0.0828 -3.74485,0.088 -7.48714,0.10138 -11.23291,0.0942 -1.60893,0.007 -3.21792,0.033 -4.82617,0.0801 -9.39585,0.26059 -16.1094,-0.17161 -23.30933,-6.66333 -1.0115,-0.9785 -2.01345,-1.96701 -3.00391,-2.9668 -3.52286,-3.5306 -7.18502,-5.47046 -11.62123,-7.62695 -1.12406,-0.602 -2.24813,-1.20399 -3.40625,-1.82422 -10.48856,-5.55941 -21.30787,-9.547323 -32.59375,-13.175783 -0.98662,-0.325085 -0.98662,-0.325085 -1.99316,-0.656738 -14.15236,-4.625421 -28.50698,-5.702919 -43.28858,-5.658936 -2.21778,0.0032 -4.43423,-0.02048 -6.65185,-0.04565 -32.18478,-0.145332 -67.90702,12.355321 -90.06641,36.361327 z"
     fill="#0a1318"
     id="path3" />
  <path
     d="m 214.31822,87.139767 c 2.26192,0.01064 4.52302,9.1e-5 6.78491,-0.0127 13.5472,-0.01512 26.78414,1.036557 39.81055,5.023437 0.88671,0.26458 1.77343,0.52916 2.68701,0.801758 2.61226,0.793133 5.21413,1.612345 7.81299,2.448242 0.7222,0.232031 1.44439,0.464063 2.18848,0.703125 16.66829,5.494866 32.83823,13.486446 45.42797,25.870606 3.58745,2.96619 7.10019,3.15753 11.62574,3.1333 1.15255,0.0227 1.15255,0.0227 2.3284,0.0458 2.4351,0.0427 4.86897,0.0517 7.30441,0.0596 1.65889,0.0232 3.31774,0.0485 4.97656,0.0762 4.04959,0.0627 8.09841,0.0952 12.14844,0.11133 -0.0168,1.11222 -0.0337,2.22444 -0.051,3.37036 -0.88655,29.21239 -0.88655,29.21239 10.05103,55.62964 0.66,1.32 1.32,2.64 2,4 0.33,-20.79 0.66,-41.58 1,-63 25.74,0 51.48,0 78,0 -0.33,25.08 -0.66,50.16 -1,76 -24.75,0 -49.5,0 -75,0 0.41104,6.57056 0.41104,6.57056 3,12 8.38524,1.28184 16.95713,1.20585 25.41797,1.31641 1.78211,0.028 1.78211,0.028 3.60022,0.0565 4.3897,0.0677 8.77951,0.12823 13.16931,0.18957 9.83812,0.14438 19.67625,0.28875 29.8125,0.4375 0,24.42 0,48.84 0,74 -25.08,0 -50.16,0 -76,0 -0.66,-3.96 -1.32,-7.92 -2,-12 -1.17806,2.564 -2.35051,5.13068 -3.49973,7.70774 -0.97589,2.14154 -1.99584,4.26374 -3.06524,6.36016 -4.65528,9.62159 -5.30618,17.90733 -5.23972,28.48679 -0.0113,1.63911 -0.0252,3.2782 -0.0415,4.91727 -0.0357,4.26451 -0.0365,8.5283 -0.0293,12.79293 9.2e-4,4.37147 -0.032,8.74267 -0.0619,13.11402 -0.0535,8.54046 -0.0701,17.08046 -0.0625,25.62109 -0.93881,-0.007 -1.87762,-0.0133 -2.84488,-0.0202 -8.85721,-0.0609 -17.71438,-0.10581 -26.57176,-0.13524 -4.55343,-0.0156 -9.10669,-0.0368 -13.66002,-0.0709 -4.3961,-0.0326 -8.79203,-0.0505 -13.18824,-0.0583 -1.67531,-0.006 -3.3506,-0.0163 -5.02583,-0.0326 -2.35071,-0.0219 -4.70076,-0.0248 -7.05156,-0.0234 -0.68908,-0.0108 -1.37816,-0.0216 -2.08813,-0.0327 -4.61122,0.0294 -7.58239,1.13473 -11.56958,3.37326 -3.79216,1.0915 -7.60611,2.01054 -11.44141,2.9375 -3.31931,0.99106 -5.75288,2.05618 -8.55859,4.0625 -0.33,0.66 -0.66,1.32 -1,2 5.61,0.33 11.22,0.66 17,1 0,25.08 0,50.16 0,76 -24.42,0 -48.84,0 -74,0 -0.33,-24.42 -0.66,-48.84 -1,-74 -5.94,-1.485 -5.94,-1.485 -12,-3 0,25.41 0,50.82 0,77 -24.42,0 -48.84,0 -74,0 0,-25.08 0,-50.16 0,-76 19.07639,-1.12214 19.07639,-1.12214 25.70312,-1.28125 1.42579,-0.0377 2.85157,-0.0754 4.27735,-0.11328 2.15898,-0.054 4.31799,-0.10661 6.47705,-0.15771 2.14448,-0.0518 4.28877,-0.10889 6.4331,-0.16651 1.24814,-0.0303 2.49627,-0.0606 3.78223,-0.0918 2.88752,-0.16442 5.51759,-0.53011 8.32715,-1.18946 -3.09764,-2.54184 -6.1692,-4.05849 -9.875,-5.5625 -1.00805,-0.41379 -2.01609,-0.82758 -3.05469,-1.2539 -1.0132,-0.39059 -2.0264,-0.78118 -3.07031,-1.1836 -0.89235,-0.35038 -1.78471,-0.70076 -2.7041,-1.06177 -3.76612,-1.07208 -7.22432,-1.19146 -11.10059,-1.13354 -0.72398,0.003 -1.44796,0.006 -2.19388,0.009 -2.29232,0.0111 -4.58423,0.0362 -6.87643,0.0617 -1.56249,0.01 -3.125,0.0192 -4.6875,0.0274 -3.81265,0.0219 -7.62501,0.0564 -11.4375,0.0976 0.0576,-0.73001 0.11521,-1.46002 0.17456,-2.21216 1.71658,-14.56989 1.71658,-14.56989 -2.55347,-27.92846 -3.06564,-3.30798 -6.58879,-5.84323 -10.621089,-7.85938 0,12.54 0,25.08 0,38 -26.07,0 -52.14,0 -79,0 0.33,-24.09 0.66,-48.18 1,-73 27.875,-0.4375 27.875,-0.4375 36.6792,-0.56811 2.29183,-0.0381 4.58366,-0.0766 6.87549,-0.11548 1.19891,-0.0165 2.39781,-0.0329 3.63305,-0.0499 1.13671,-0.0202 2.27343,-0.0404 3.44458,-0.0612 0.9904,-0.0155 1.98079,-0.0311 3.00119,-0.0471 2.38477,-0.006 2.38477,-0.006 4.36649,-1.15822 -0.47438,-0.86625 -0.94875,-1.7325 -1.4375,-2.625 -1.5625,-3.375 -1.5625,-3.375 -2.5625,-9.375 -18.15,0 -36.3,0 -55,0 0,-24.42 0,-48.84 0,-74 15.51,0 31.02,0 47,0 0.33,-2.64 0.66,-5.28 1,-8 0.30169,-1.34085 0.61518,-2.6806 1,-4 -0.92112,-0.025 -1.84223,-0.0501 -2.79126,-0.0759 -3.4947,-0.0965 -6.98931,-0.1956 -10.48389,-0.29638 -1.49802,-0.0427 -2.99606,-0.0844 -4.49414,-0.125 -2.18246,-0.0593 -4.36478,-0.12252 -6.54712,-0.18628 -1.30396,-0.0367 -2.60793,-0.0733 -3.95141,-0.11109 -6.58346,-0.28564 -13.15712,-0.76698 -19.73218,-1.20532 -0.33,-24.75 -0.66,-49.5 -1,-75 39.105,-0.495 39.105,-0.495 79,-1 0.495,7.92 0.495,7.92 1,16 1.794369,-1.34063 3.588749,-2.68125 5.437499,-4.0625 1.514,-1.13115 1.514,-1.13115 3.05859,-2.28516 3.04465,-3.22514 3.29599,-5.29673 3.50391,-9.65234 3.96,0 7.92,0 12,0 0.66,-1.32 1.32,-2.64 2,-4 16.22862,-17.7074 41.21145,-26.896841 64,-32.000002 0.82411,-0.195776 1.64823,-0.391553 2.49731,-0.593262 7.77162,-1.657862 15.50019,-1.711852 23.40709,-1.667779 z m -98.61719,61.118163 c -26.978669,28.82523 -37.558379,63.05661 -36.287349,102.14258 1.4115,29.74087 15.25939,62.35466 35.874999,83.75 0.91314,0.95665 0.91314,0.95665 1.84473,1.93262 15.69909,16.21273 36.10078,27.3186 57.34277,34.56738 0.6832,0.23437 1.36641,0.46874 2.07031,0.71021 11.9659,3.8959 23.48001,5.53731 35.99805,5.43091 2.23565,-0.0161 4.46948,-7e-5 6.70508,0.019 14.89288,0.0251 28.47979,-2.73543 42.60156,-7.53516 1.74241,-0.58986 1.74241,-0.58986 3.52002,-1.19165 26.48964,-9.24138 47.29479,-26.24776 64.04248,-48.68335 1.1875,-1.47916 2.375,-2.95833 3.5625,-4.4375 11.98824,-15.61448 20.13604,-33.65514 25.4375,-52.5625 0.28931,-1.01042 0.28931,-1.01042 0.58447,-2.04126 7.11921,-27.80962 -0.16474,-64.50941 -14.35425,-88.76441 -5.95006,-9.95005 -13.27615,-18.79325 -21.23022,-27.19433 -1.24717,-1.34385 -1.24717,-1.34385 -2.51953,-2.71485 -10.70174,-11.17175 -22.61761,-18.87795 -36.5918,-25.38033 -1.25738,-0.60236 -2.50153,-1.23315 -3.73047,-1.8916 -5.73628,-3.05827 -11.67063,-4.86275 -17.9082,-6.63818 -1.00805,-0.29906 -2.01609,-0.59813 -3.05469,-0.90625 -11.6599,-3.36974 -22.68656,-4.81778 -34.82031,-4.71875 -1.23057,0.008 -2.46114,0.0164 -3.729,0.0249 -42.02903,0.51248 -76.40577,15.74792 -105.35865,46.08252 z"
     fill="#dedfd8"
     id="path4" />
  <path
     d="m 237.17149,149.12317 c 12.01501,8.61415 17.8665,22.47355 20.71875,36.55078 0.54598,3.88706 0.60975,7.61658 0.64844,11.53906 0.31055,9.77466 4.81099,17.05519 9.875,25.1875 0.51192,0.82597 1.02384,1.65193 1.55127,2.50293 2.5797,4.14162 5.19412,8.25758 7.84717,12.35254 5.60156,8.76662 5.60156,8.76662 5.60156,12.26953 -2.817,5.28187 -8.6616,7.21358 -13.89063,9.4336 -2.32106,1.28575 -2.32106,1.28575 -3,3.88281 -0.30461,2.80035 -0.30461,2.80035 1.39063,6.05859 1.54649,3.60848 1.70987,4.8704 0.5,8.5 -1.32,0.33 -2.64,0.66 -4,1 0.0236,0.99798 0.0236,0.99798 0.0476,2.01612 0.0626,3.0362 0.10148,6.07228 0.13989,9.10888 0.0251,1.04672 0.0503,2.09344 0.0762,3.17188 0.0946,9.96609 0.0946,9.96609 -3.26367,14.70312 -5.13307,4.34704 -10.72197,5.11453 -17.19922,5.10547 -1.20979,0.0148 -2.41957,0.0297 -3.66602,0.0449 -2.52853,0.0246 -5.05732,0.0301 -7.58593,0.0156 -8.14635,0.14246 -13.4265,1.30073 -19.54883,6.83398 -6.77441,7.30924 -7.37331,19.42679 -8,29 -18.67579,1.05712 -41.46039,-10.43807 -56.125,-21.625 -1.62755,-1.45548 -3.25219,-2.91423 -4.875,-4.375 -1.29955,-0.9756 -2.60045,-1.94941 -3.90235,-2.92187 -6.60972,-5.29445 -11.22178,-9.75998 -12.20703,-18.48047 -0.23966,-4.50412 -0.17058,-8.95552 -0.004,-13.46094 0.33635,-9.32667 -1.5239,-16.37928 -6.19922,-24.38672 -11.21559,-20.22086 -14.5559,-40.07463 -8.37207,-62.49219 7.44031,-24.53924 25.24654,-44.62673 47.23535,-57.42968 25.63914,-13.58894 52.17764,-9.11535 76.20713,5.89458 z"
     fill="#0b1418"
     id="path5" />
  <path
     d="m 313.21544,134.51159 c 2.44672,2.24941 4.82132,4.5657 7.19824,6.88891 0.85078,0.78891 1.70157,1.57782 2.57813,2.39063 9.47539,8.99864 16.8899,19.55105 23.35937,30.85937 0.35329,0.61247 0.70657,1.22493 1.07056,1.85596 13.3499,24.1929 17.96066,60.72667 10.86694,87.33155 -0.86637,2.89131 -1.84136,5.72721 -2.875,8.5625 -0.22462,0.64888 -0.44924,1.29776 -0.68066,1.9663 -8.32532,23.83078 -22.79622,43.38726 -39.96826,61.59913 -1.2798,1.35888 -2.54821,2.72846 -3.81592,4.09863 -6.18608,6.47683 -12.93951,11.64851 -20.53516,16.33594 -0.59039,0.3698 -1.18078,0.7396 -1.78906,1.1206 -9.31767,5.71203 -19.08297,9.44537 -29.46094,12.8169 -1.15959,0.37769 -2.31918,0.75539 -3.51391,1.14453 -13.35608,4.15653 -26.32994,5.35622 -40.23609,5.35547 -0.76602,0.002 -1.53205,0.003 -2.32129,0.005 -12.80204,-0.0127 -24.46687,-1.39885 -36.67871,-5.44275 -1.00289,-0.29907 -2.00578,-0.59813 -3.03906,-0.90625 -2.73659,-0.89291 -5.32168,-1.94286 -7.96094,-3.09375 -0.99169,-0.42443 -0.99169,-0.42443 -2.00342,-0.85743 -18.17309,-7.8659 -34.05613,-18.04003 -47.99658,-32.14257 -0.66,-0.64969 -1.32,-1.29938 -2,-1.96875 -24.315069,-25.66592 -34.617469,-63.16611 -34.218749,-97.61329 0.20485,-7.22713 1.29536,-14.19674 2.77002,-21.26367 0.44486,-2.13571 0.85138,-4.27652 1.25733,-6.41992 6.7108,-33.41941 31.135799,-63.38146 58.925779,-82.3125 50.45347,-33.326872 125.1296,-31.18187 171.06738,9.68946 z M 174.41368,123.4005 c -1.0248,0.34676 -2.04961,0.69352 -3.10547,1.05078 -14.93283,5.66418 -28.24898,15.16806 -39.89453,25.94922 -0.90363,0.82242 -1.80726,1.64485 -2.73828,2.49219 -6.18811,5.87823 -10.84195,12.22766 -15.26172,19.50781 -0.68062,1.10473 -1.36125,2.20946 -2.0625,3.34766 -16.406899,27.23012 -20.884529,61.92184 -13.328119,92.83985 8.896259,32.39834 29.570429,60.91395 58.789059,77.77343 13.84322,7.25423 28.18194,11.73043 43.60156,14.03907 0.79278,0.13148 1.58555,0.26296 2.40235,0.39843 21.05344,2.99032 40.72807,-1.89003 60.59765,-8.39843 1.16274,-0.36739 2.32547,-0.73477 3.52344,-1.11329 15.22166,-5.27198 28.19244,-14.58602 39.47656,-25.88671 0.84692,-0.77602 1.69383,-1.55204 2.56641,-2.35157 19.45739,-18.20894 34.86007,-49.41691 35.77734,-76.22265 0.84983,-32.74605 -7.26088,-65.77491 -30.30298,-90.22413 -1.34391,-1.40344 -2.6922,-2.80269 -4.04077,-4.20166 -0.58394,-0.64711 -1.16789,-1.29422 -1.76953,-1.96093 -9.6919,-10.45254 -22.43733,-17.18487 -35.23047,-23.03907 -1.02867,-0.4834 -2.05734,-0.96679 -3.11718,-1.46484 -8.05017,-3.58876 -16.30112,-5.67293 -24.88282,-7.53516 -1.00031,-0.22816 -2.00062,-0.45633 -3.03125,-0.6914 -22.41987,-4.3092 -46.53306,-1.60808 -67.96875,5.6914 z"
     fill="#091116"
     id="path6" />
  <path
     d="m 277.41368,129.40051 c -0.33,2.31 -0.66,4.62 -1,7 -1.65,0.33 -3.3,0.66 -5,1 -0.10047,4.4433 -0.17221,8.88596 -0.21973,13.33007 -0.0198,1.505 -0.0469,3.00993 -0.082,4.51465 -0.26152,11.52253 0.57389,21.81441 5.90992,32.32202 1.73739,3.53666 1.82986,6.34772 1.95434,10.27076 0.17809,5.26172 0.83992,9.59012 2.4375,14.5625 -0.94875,-0.0412 -1.8975,-0.0825 -2.875,-0.125 -3.22745,-0.22474 -3.22745,-0.22474 -5.125,2.125 -1.155,-0.0206 -2.31,-0.0412 -3.5,-0.0625 -1.7325,0.0309 -1.7325,0.0309 -3.5,0.0625 -0.66,0.99 -1.32,1.98 -2,3 -4.5104,-7.28285 -6.44583,-13.21684 -6.68091,-21.78858 -0.44393,-13.25515 -4.49965,-29.75014 -14.31909,-39.21142 0,-0.66 0,-1.32 0,-2 -0.85271,-0.39446 -0.85271,-0.39446 -1.72266,-0.79688 -2.4397,-1.2889 -4.50679,-2.79988 -6.71484,-4.45312 -16.11592,-11.32598 -35.12317,-15.20162 -54.5625,-12.75 -22.90629,5.12435 -43.40818,23.07201 -55.72437,42.45337 -11.34403,18.50329 -16.38011,39.63814 -11.31079,60.95288 2.9437,10.21963 7.36029,19.72184 12.40699,29.05225 3.21678,6.11671 3.72725,11.43271 3.34692,18.31494 -0.75687,13.57223 -0.75687,13.57223 4.84766,25.5 4.78043,5.07548 10.11408,9.35538 15.77685,13.40039 0.73106,0.52529 1.46212,1.05058 2.21533,1.59179 0.66186,0.45666 1.32371,0.91331 2.00562,1.38379 0.47381,0.4457 0.94762,0.89139 1.43579,1.35059 0,0.99 0,1.98 0,3 -0.66,0.66 -1.32,1.32 -2,2 0.495,1.14469 0.495,1.14469 1,2.3125 1,2.6875 1,2.6875 1,5.6875 -12.72386,-1.40337 -26.28137,-18.10098 -33.98047,-27.60156 -6.63167,-8.52127 -11.61369,-17.56833 -16.01953,-27.39844 -0.42322,-0.91169 -0.42322,-0.91169 -0.85498,-1.8418 -12.521759,-27.18335 -13.234339,-61.88214 -3.45752,-90.0957 5.89491,-15.80486 14.81844,-29.72741 26.3125,-42.0625 0.59168,-0.64453 1.18336,-1.28907 1.79297,-1.95313 36.45163,-38.18027 101.71272,-48.66619 148.20703,-23.04687 z"
     fill="#e0e3dd"
     id="path7" />
  <path
     d="m 370.41368,125.40051 c 25.74,0 51.48,0 78,0 0,18 0,18 -0.21875,24.5625 -0.0222,0.68763 -0.0444,1.37527 -0.0673,2.08374 -0.0689,2.11801 -0.14135,4.23587 -0.21399,6.35376 -0.0484,1.46874 -0.0966,2.93749 -0.14453,4.40625 -0.11576,3.53134 -0.23468,7.06257 -0.35547,10.59375 -0.66,0 -1.32,0 -2,0 0,8.25 0,16.5 0,25 -0.66,0 -1.32,0 -2,0 0,0.66 0,1.32 0,2 -9.07502,0.0695 -18.14994,0.12279 -27.22516,0.15543 -4.21386,0.0157 -8.42754,0.0369 -12.64129,0.0709 -4.06541,0.0326 -8.13065,0.0505 -12.19618,0.0583 -1.55218,0.006 -3.10436,0.0164 -4.65646,0.0326 -2.17173,0.0217 -4.34273,0.0248 -6.51455,0.0234 -1.23688,0.007 -2.47376,0.0133 -3.74813,0.0202 -3.01823,-0.36076 -3.01823,-0.36076 -4.89768,-1.67807 -4.18601,-6.28602 -2.14319,-17.28776 -1.99946,-24.46394 0.0207,-1.25007 0.0413,-2.50014 0.0626,-3.78809 0.0784,-4.64366 0.16667,-9.28716 0.25378,-13.93066 0.18563,-10.395 0.37125,-20.79 0.5625,-31.5 z"
     fill="#dadbd3"
     id="path8" />
  <path
     d="m 284.41368,389.40051 c 24.09,0 48.18,0 73,0 0,25.08 0,50.16 0,76 -24.09,0 -48.18,0 -73,0 0,-25.08 0,-50.16 0,-76 z"
     fill="#dcdcd5"
     id="path9" />
  <path
     d="m 370.41368,303.40051 c 25.41,0 50.82,0 77,0 0,23.76 0,47.52 0,72 -38.115,0.495 -38.115,0.495 -77,1 0,-24.09 0,-48.18 0,-73 z"
     fill="#dcddd6"
     id="path10" />
  <path
     d="m 19.413681,389.40051 c 25.74,0 51.48,0 78,0 0,25.08 0,50.16 0,76 -50.242001,0 -50.242001,0 -64.121094,-12.92578 C 16.39483,433.82044 19.413681,414.52815 19.413681,389.40051 Z"
     fill="#ddded6"
     id="path11" />
  <path
     d="m 370.41368,388.40051 c 25.69817,-0.0908 51.31848,0.14637 77,1 0.0999,5.06789 0.17192,10.1352 0.21973,15.20385 0.0199,1.71951 0.0471,3.43894 0.082,5.15821 0.26867,13.58755 -1.04299,24.36332 -9.30176,35.63794 -0.47953,0.66773 -0.95906,1.33547 -1.45312,2.02343 -4.79596,6.07644 -10.73974,9.45596 -17.54688,12.97657 -1.13437,0.59812 -2.26875,1.19625 -3.4375,1.8125 -14.76824,4.92274 -30.22382,3.1875 -45.5625,3.1875 0,-25.41 0,-50.82 0,-77 z"
     fill="#d9dad2"
     id="path12" />
  <path
     d="m 277.41368,130.40051 c 28.0359,11.05641 45.51615,32.67666 57.58203,59.51953 1.92133,4.49047 3.5912,8.65036 4.41797,13.48047 -0.7425,-0.20625 -1.485,-0.4125 -2.25,-0.625 -2.72577,-0.65346 -2.72577,-0.65346 -4.75,0.75 -0.66,0.28875 -1.32,0.5775 -2,0.875 -0.64413,-0.47091 -1.28826,-0.94182 -1.9519,-1.42701 -4.54303,-2.34447 -8.78051,-1.94378 -13.81763,-1.86596 -1.03614,0.004 -2.07228,0.008 -3.13982,0.0129 -3.30131,0.0168 -6.60202,0.0544 -9.90315,0.0926 -2.24153,0.0151 -4.48306,0.0287 -6.72461,0.041 -5.48784,0.033 -10.97532,0.0832 -16.46289,0.14648 -0.0592,-0.75441 -0.11836,-1.50882 -0.17934,-2.28609 -0.0827,-0.9901 -0.16539,-1.98019 -0.25059,-3.00029 -0.0798,-0.98128 -0.15961,-1.96257 -0.24184,-2.97359 -0.39504,-3.29773 -1.34278,-5.93384 -2.76573,-8.92753 -4.30643,-9.19134 -4.86137,-16.99326 -4.76831,-27.06861 0.0184,-2.06905 0.0205,-4.13766 0.0203,-6.20678 0.0449,-10.11507 0.0449,-10.11507 1.18555,-13.53711 0.63938,-0.28875 1.27875,-0.5775 1.9375,-0.875 2.77931,-1.51599 3.13366,-3.18368 4.0625,-6.125 z"
     fill="#e0e2db"
     id="path13" />
  <path
     d="m 370.41368,0.4005069 c 4.81775,2.4088765 7.52373,5.2308882 10,10.0000001 1.38698,8.512949 1.29447,17.076358 1.3501,25.681152 0.0166,1.879358 0.0439,3.758651 0.082,5.637696 0.055,2.737793 0.0767,5.474129 0.0913,8.212402 0.0227,0.830438 0.0453,1.660876 0.0687,2.516479 -0.022,6.13583 -1.70881,10.195145 -5.59213,14.952271 -3.28425,2.855873 -5.19439,3.884913 -9.5,4.5 -5.30446,-0.75778 -8.14328,-2.96271 -11.64258,-6.927734 -2.94951,-4.6053 -2.42886,-9.8132 -2.38867,-15.103516 -0.004,-1.109279 -0.008,-2.218557 -0.0116,-3.36145 -0.003,-2.339975 0.005,-4.679981 0.0214,-7.019898 0.0214,-3.575397 1.9e-4,-7.148785 -0.0254,-10.724121 0.003,-2.277348 0.008,-4.554695 0.0156,-6.832031 -0.008,-1.065773 -0.0162,-2.131545 -0.0245,-3.229614 0.0976,-7.749414 1.47285,-11.0474199 6.80579,-16.6766361 3.61866,-2.13830119 6.69985,-2.40479234 10.75,-1.625 z"
     fill="#0a1116"
     id="path14" />
  <path
     d="m 103.41368,0.4005069 c 5.63459,2.7046032 7.97117,6.2893323 10,12.0000001 0.5485,3.434514 0.5853,6.800134 0.56641,10.273437 0.009,1.445679 0.009,1.445679 0.0188,2.920563 0.007,2.028748 0.004,4.057554 -0.009,6.086273 -0.0139,3.079554 0.0202,6.156055 0.0583,9.235352 9.5e-4,1.981772 -9.1e-4,3.963547 -0.006,5.945312 0.0133,0.907611 0.0265,1.815222 0.0402,2.750336 -0.11398,7.956166 -2.73141,14.361517 -7.91902,20.413727 -3.9632,1.981602 -7.406303,2.150378 -11.749999,1.375 -4.048017,-2.338854 -7.106803,-5.702998 -9,-10 -0.593426,-3.675455 -0.584557,-7.306274 -0.566406,-11.023438 -0.0062,-1.060143 -0.0124,-2.120286 -0.01878,-3.212554 -0.0071,-2.237408 -0.0039,-4.474868 0.0088,-6.71225 0.01384,-3.408875 -0.0202,-6.814991 -0.05835,-10.223633 -9.51e-4,-2.179688 9.1e-4,-4.35938 0.0059,-6.539063 -0.01326,-1.011702 -0.02652,-2.023405 -0.04018,-3.065765 0.08566,-6.57384 1.254767,-11.2133252 5.669016,-16.2232971 3.951013,-3.2588331 7.864378,-4.8741484 12.999999,-4 z"
     fill="#0c1319"
     id="path15" />
  <path
     d="m 370.41368,376.40051 c 23.76,0 47.52,0 72,0 0.77772,2.33317 1.42416,4.61436 2,7 0,-1.65 0,-3.3 0,-5 0.495,0.99 0.495,0.99 1,2 0.99,0 1.98,0 3,0 0.33,-0.66 0.66,-1.32 1,-2 -0.47202,4.24822 -2.96655,6.19989 -6,9 0.66,0 1.32,0 2,0 0,-0.66 0,-1.32 0,-2 0.99,0.495 0.99,0.495 2,1 -0.33,0.66 -0.66,1.32 -1,2 -25.08,0 -50.16,0 -76,0 0,-4 0,-4 2,-6 -0.66,-1.98 -1.32,-3.96 -2,-6 z"
     fill="#060d10"
     id="path16" />
  <path
     d="m 140.41368,142.40051 c 0.99,0.66 1.98,1.32 3,2 -0.33,0.99 -0.66,1.98 -1,3 0.99,0 1.98,0 3,0 0,0.66 0,1.32 0,2 1.45833,1.62514 1.45833,1.62514 3,3 -0.9784,0.8598 -1.9568,1.71961 -2.96484,2.60547 -15.24659,13.64035 -25.08906,29.19687 -32.03516,48.39453 -0.66,0 -1.32,0 -2,0 0,-0.99 0,-1.98 0,-3 -2.31,0.99 -4.62,1.98 -7,3 0,-4 0,-4 2,-6 -0.99,-0.66 -1.98,-1.32 -3,-2 0.49169,-5.4017 1.91112,-9.49475 4.5625,-14.25 0.53355,-0.97562 0.53355,-0.97562 1.07788,-1.97095 7.75451,-13.87963 18.58445,-27.19768 31.35962,-36.77905 z"
     fill="#edeef2"
     id="path18" />
  <path
     d="m 341.41368,285.40051 c 2.02046,0.60183 4.02111,1.27306 6,2 0.495,0.99 0.495,0.99 1,2 -1.08689,2.41532 -2.22635,4.68509 -3.5,7 -0.55313,1.01658 -0.55313,1.01658 -1.11743,2.05371 -6.24932,11.30382 -14.10136,21.93743 -23.38257,30.94629 -0.66,-0.33 -1.32,-0.66 -2,-1 0,0.66 0,1.32 0,2 -1.485,0.495 -1.485,0.495 -3,1 -0.33,0.99 -0.66,1.98 -1,3 -1.8125,0.625 -1.8125,0.625 -4,1 -0.7425,0.18562 -1.485,0.37125 -2.25,0.5625 -0.5775,0.14437 -1.155,0.28875 -1.75,0.4375 0,-1.32 0,-2.64 0,-4 -1.65,-0.66 -3.3,-1.32 -5,-2 3.08454,-3.70145 6.15256,-7.16495 9.6875,-10.4375 3.93352,-3.86518 7.01437,-8.15822 10.125,-12.6875 0.46817,-0.68119 0.93634,-1.36238 1.4187,-2.06421 2.03926,-3.02848 3.82143,-5.92084 5.40161,-9.22486 1.36719,-2.58593 1.36719,-2.58593 4.42969,-3.83593 1.45406,-0.37125 1.45406,-0.37125 2.9375,-0.75 0.66,-0.66 1.32,-1.32 2,-2 0.66,0 1.32,0 2,0 0.66,-1.32 1.32,-2.64 2,-4 z"
     fill="#09161d"
     id="path19" />
  <path
     d="m 271.41368,137.40051 c 1.79503,0.20111 3.58621,0.43688 5.375,0.6875 0.99774,0.12761 1.99547,0.25523 3.02344,0.38672 2.60156,0.92578 2.60156,0.92578 3.74756,3.03442 1.02565,3.47251 1.11316,6.45662 1.11963,10.07886 0.003,0.69171 0.005,1.38342 0.008,2.0961 0.004,2.23898 -0.009,4.47746 -0.0236,6.7164 -0.002,0.75867 -0.003,1.51734 -0.005,2.29901 -0.0339,12.32239 -0.67006,24.47009 -2.24461,36.70099 -0.2591,-0.52465 -0.5182,-1.0493 -0.78516,-1.58985 -0.9253,-1.83574 -1.87513,-3.65914 -2.83593,-5.47656 -0.59942,-1.15371 -1.19883,-2.30742 -1.81641,-3.49609 -0.59684,-1.13567 -1.19367,-2.27133 -1.80859,-3.44141 -4.34584,-9.35233 -5.19544,-18.2303 -5.03516,-28.47852 0.0316,-2.0425 0.041,-4.08422 0.0469,-6.12695 0.0791,-9.92474 0.0791,-9.92474 1.23437,-13.39062 z"
     fill="#10181b"
     id="path20" />
  <path
     d="m 278.41368,201.40051 c 15.18,0 30.36,0 46,0 3,8 3,8 4,14 -14.85,0 -29.7,0 -45,0 -5,-10 -5,-10 -5,-14 z"
     fill="#0b1317"
     id="path21" />
  <path
     d="m 280.41368,289.40051 c 11.22,0 22.44,0 34,0 -1.21622,9.72973 -1.21622,9.72973 -3,13 -3.23752,1.07917 -5.57752,1.11425 -8.98047,1.09765 -1.16338,-0.003 -2.32676,-0.006 -3.52539,-0.01 -1.21494,-0.008 -2.42988,-0.0168 -3.68164,-0.0254 -1.22654,-0.005 -2.45309,-0.009 -3.7168,-0.0137 -3.03195,-0.0118 -6.0638,-0.0282 -9.0957,-0.0488 0.0464,1.24136 0.0928,2.48273 0.14063,3.76172 0.0375,1.6419 0.0739,3.28383 0.10937,4.92578 0.0503,1.22493 0.0503,1.22493 0.10156,2.47461 0.0665,4.10441 -0.0253,6.29035 -2.17187,9.89257 -2.17969,1.94532 -2.17969,1.94532 -5.30469,2.38282 -2.875,-0.4375 -2.875,-0.4375 -4.875,-2.4375 0.1704,-3.15242 0.71735,-4.67836 2.8125,-7.0625 6.23588,-8.37389 6.4006,-17.70783 7.1875,-27.9375 z"
     fill="#0a1317"
     id="path22" />
  <path
     d="m 128.41368,288.40051 c 0.33,0 0.66,0 1,0 -0.12504,1.17433 -0.25008,2.34867 -0.37891,3.55859 -0.43661,7.80606 -0.25201,14.07735 4.94922,20.27734 6.08029,6.35146 12.743,11.8693 19.9939,16.82886 0.47381,0.44062 0.94762,0.88124 1.43579,1.33521 0,0.99 0,1.98 0,3 -0.66,0.66 -1.32,1.32 -2,2 0.33,0.76312 0.66,1.52625 1,2.3125 1,2.6875 1,2.6875 1,5.6875 -12.27418,-1.35377 -25.23963,-17.22735 -32.86719,-26.19532 -1.13281,-1.80468 -1.13281,-1.80468 -1.13281,-4.80468 0.99,0.33 1.98,0.66 3,1 0.33,-0.33 0.66,-0.66 1,-1 -1.65,-0.33 -3.3,-0.66 -5,-1 -0.33,-2.64 -0.66,-5.28 -1,-8 1.9375,-0.5625 1.9375,-0.5625 4,-1 0.33,0.33 0.66,0.66 1,1 0.33,-0.66 0.66,-1.32 1,-2 0.33,0 0.66,0 1,0 -0.0619,-1.54688 -0.0619,-1.54688 -0.125,-3.125 0.12075,-3.7433 0.77372,-6.41235 2.125,-9.875 z"
     fill="#e9ebe7"
     id="path23" />
  <path
     d="m 136.41368,129.40051 c 0.99,0.33 1.98,0.66 3,1 0,0.66 0,1.32 0,2 0.66,0.33 1.32,0.66 2,1 -0.66,0.66 -1.32,1.32 -2,2 1.32,0.66 2.64,1.32 4,2 -0.94875,0.28875 -1.8975,0.5775 -2.875,0.875 -3.17712,0.89325 -3.17712,0.89325 -5.125,3.125 0.33,0.66 0.66,1.32 1,2 -1.24634,4.90854 -4.33236,7.68552 -7.875,11.0625 -0.79471,0.7744 -0.79471,0.7744 -1.60547,1.56445 -1.02932,1.0025 -2.06144,2.00214 -3.09668,2.99853 -1.83077,1.76858 -3.62946,3.56813 -5.42285,5.37452 -0.76312,-0.33 -1.52625,-0.66 -2.3125,-1 -2.67819,-1.17437 -2.67819,-1.17437 -5.6875,-1 0.99,-0.495 0.99,-0.495 2,-1 0,-0.66 0,-1.32 0,-2 -0.99,-0.33 -1.98,-0.66 -3,-1 0.59035,-3.49844 1.83482,-5.26084 4.24609,-7.82813 0.66814,-0.7143 1.33628,-1.4286 2.02466,-2.16455 0.71503,-0.74492 1.43006,-1.48983 2.16675,-2.25732 0.72341,-0.7591 1.44681,-1.5182 2.19214,-2.3003 11.2018,-11.60752 11.2018,-11.60752 16.37036,-14.4497 z"
     fill="#070c12"
     id="path24" />
  <path
     d="m 356.41368,268.40051 c 2.0625,0.4375 2.0625,0.4375 4,1 0.38133,1.9914 0.71326,3.99279 1,6 -0.33,0.33 -0.66,0.66 -1,1 0.96938,0.26812 1.93875,0.53625 2.9375,0.8125 1.01063,0.39187 2.02125,0.78375 3.0625,1.1875 1.20714,3.6214 0.72271,4.26217 -0.80078,7.64062 -0.60038,1.35932 -0.60038,1.35932 -1.21289,2.7461 -0.42861,0.94488 -0.85723,1.88976 -1.29883,2.86328 -2.62724,5.85546 -5.12819,11.51277 -6.6875,17.75 -2.69231,-9.61539 -2.69231,-9.61539 -1,-13 -0.63029,-1.68077 -1.29788,-3.34796 -2,-5 0,-0.66 0,-1.32 0,-2 -0.59812,0.66 -1.19625,1.32 -1.8125,2 -2.1875,2 -2.1875,2 -5.1875,2 1.66572,-5.18132 3.59056,-10.24237 5.5625,-15.3125 0.31647,-0.82307 0.63293,-1.64614 0.95899,-2.49414 0.30357,-0.78182 0.60714,-1.56364 0.91992,-2.36914 0.27529,-0.71068 0.55059,-1.42136 0.83423,-2.15357 0.72436,-1.67065 0.72436,-1.67065 1.72436,-2.67065 z"
     fill="#e9ebe9"
     id="path26" />
  <path
     d="m 140.41368,142.40051 c 0.99,0.66 1.98,1.32 3,2 -0.33,0.99 -0.66,1.98 -1,3 0.99,0 1.98,0 3,0 0,0.66 0,1.32 0,2 1.45833,1.62514 1.45833,1.62514 3,3 -0.43345,0.39268 -0.86689,0.78536 -1.31348,1.18994 -1.98493,1.80511 -3.96072,3.61995 -5.93652,5.43506 -0.68191,0.61746 -1.36383,1.23492 -2.06641,1.87109 -3.87768,3.5765 -6.97686,6.96943 -9.68359,11.50391 -1.42945,-2.35439 -2.08661,-3.48033 -1.625,-6.25 0.30938,-0.86625 0.30938,-0.86625 0.625,-1.75 0.99,0 1.98,0 3,0 -0.33,-0.66 -0.66,-1.32 -1,-2 -0.89719,0.2475 -0.89719,0.2475 -1.8125,0.5 -2.1875,0.5 -2.1875,0.5 -5.1875,0.5 0,0.99 0,1.98 0,3 -0.66,0 -1.32,0 -2,0 0,-0.66 0,-1.32 0,-2 -0.66,-0.33 -1.32,-0.66 -2,-1 13.78125,-15.53125 13.78125,-15.53125 21,-21 z"
     fill="#eae9e8"
     id="path27" />
  <path
     d="m 332.41368,278.40051 c 0.99,0 1.98,0 3,0 -0.95463,5.82219 -3.49452,10.70736 -6,16 -0.33258,0.77601 -0.66516,1.55203 -1.00781,2.35156 -2.77196,6.21944 -6.86091,8.81861 -12.99219,11.64844 0,-1.32 0,-2.64 0,-4 -0.99,-0.33 -1.98,-0.66 -3,-1 0.11443,-1.60496 0.24195,-3.20898 0.375,-4.8125 0.10441,-1.33998 0.10441,-1.33998 0.21094,-2.70703 0.41406,-2.48047 0.41406,-2.48047 2.41406,-5.48047 2.97,0.495 2.97,0.495 6,1 0,-1.32 0,-2.64 0,-4 2.76264,-0.59733 5.16033,-1 8,-1 0.66,-0.33 1.32,-0.66 2,-1 -0.20625,-0.78375 -0.4125,-1.5675 -0.625,-2.375 -0.12375,-0.86625 -0.2475,-1.7325 -0.375,-2.625 0.66,-0.66 1.32,-1.32 2,-2 z m -14,10 c 0.99,0.495 0.99,0.495 2,1 -0.99,0.495 -0.99,0.495 -2,1 0,-0.66 0,-1.32 0,-2 z"
     fill="#ebeae6"
     id="path30" />
  <path
     d="m 341.41368,285.40051 c 2.02046,0.60183 4.02111,1.27306 6,2 0.33,0.66 0.66,1.32 1,2 -1.08684,2.41519 -2.22674,4.68503 -3.5,7 -0.36368,0.67047 -0.72735,1.34094 -1.10205,2.03173 -8.20297,14.87077 -8.20297,14.87077 -12.39795,16.96827 0.18563,-0.59813 0.37125,-1.19625 0.5625,-1.8125 0.65844,-2.35159 0.65844,-2.35159 -0.5625,-5.1875 0.27571,-2.00876 0.60236,-4.01179 1,-6 -0.99,-0.33 -1.98,-0.66 -3,-1 0,-0.99 0,-1.98 0,-3 -0.66,0 -1.32,0 -2,0 0.625,-2.375 0.625,-2.375 2,-5 3,-1.1875 3,-1.1875 6,-2 0.66,-0.66 1.32,-1.32 2,-2 0.66,0 1.32,0 2,0 0.66,-1.32 1.32,-2.64 2,-4 z"
     fill="#0b1e24"
     id="path31" />
  <path
     d="m 343.41368,297.40051 c 0.99,0.33 1.98,0.66 3,1 -0.66,1.98 -1.32,3.96 -2,6 0.66,0.33 1.32,0.66 2,1 -0.66,0 -1.32,0 -2,0 0.33,0.99 0.66,1.98 1,3 -1.98,0.66 -3.96,1.32 -6,2 -0.21656,1.54687 -0.21656,1.54687 -0.4375,3.125 -0.34884,2.40312 -0.73727,4.80129 -1.1875,7.1875 -0.62876,2.65209 -0.62876,2.65209 0.625,4.6875 -0.92812,-0.2475 -0.92812,-0.2475 -1.875,-0.5 -2.08563,-0.57635 -2.08563,-0.57635 -4.125,-0.5 -2.21748,2.30276 -2.9676,3.5248 -3.1875,6.75 0.0619,0.7425 0.12375,1.485 0.1875,2.25 -0.99,-0.33 -1.98,-0.66 -3,-1 -2.14256,0.38933 -2.14256,0.38933 -4,1 -0.66,-1.32 -1.32,-2.64 -2,-4 0.49629,-0.61746 0.99258,-1.23493 1.50391,-1.8711 1.43003,-1.78279 2.85689,-3.56813 4.28125,-5.35547 1.33242,-1.66846 2.6715,-3.33168 4.02343,-4.98437 5.02102,-6.23859 9.10195,-12.91665 13.19141,-19.78906 z"
     fill="#e5e9f1"
     id="path32" />
  <path
     d="m 284.41368,389.40051 c 24.09,0 48.18,0 73,0 0,24.75 0,49.5 0,75 -14.19,0 -28.38,0 -43,0 0,-0.33 0,-0.66 0,-1 13.53,0 27.06,0 41,0 -0.33,-0.99 -0.66,-1.98 -1,-3 0.33,-0.66 0.66,-1.32 1,-2 0.12077,-2.15412 0.17746,-4.31192 0.20532,-6.46924 0.01,-0.67427 0.0201,-1.34854 0.0304,-2.04324 0.0314,-2.18591 0.0562,-4.37184 0.0807,-6.55784 0.0184,-1.34823 0.0372,-2.69645 0.0565,-4.04467 0.0685,-5.00327 0.12852,-10.00665 0.18958,-15.01001 0.14438,-11.17875 0.28875,-22.3575 0.4375,-33.875 -23.1,0 -46.2,0 -70,0 0,2.31 0,4.62 0,7 -0.66,0 -1.32,0 -2,0 0,-2.64 0,-5.28 0,-8 z"
     fill="#e7e9e6"
     id="path33" />
  <path
     d="m 19.413681,303.40051 c 19.14,0 38.28,0 58,0 0,0.33 0,0.66 0,1 -12.019606,0.93063 -23.949657,1.12346 -36,1.0625 -1.757811,-0.005 -3.515624,-0.01 -5.273438,-0.0137 -4.242223,-0.0108 -8.484376,-0.028 -12.726562,-0.0488 -0.33,1.32 -0.66,2.64 -1,4 -0.33,0 -0.66,0 -1,0 -0.33,21.12 -0.66,42.24 -1,64 -0.33,0 -0.66,0 -1,0 0,-23.1 0,-46.2 0,-70 z"
     fill="#e7efef"
     id="path34" />
  <path
     d="m 279.41368,302.40051 c 0.99,0.33 1.98,0.66 3,1 0.10829,2.89684 0.18744,5.78961 0.25,8.6875 0.0503,1.22493 0.0503,1.22493 0.10156,2.47461 0.0665,4.10441 -0.0253,6.29035 -2.17187,9.89257 -2.17969,1.94532 -2.17969,1.94532 -5.30469,2.38282 -2.875,-0.4375 -2.875,-0.4375 -4.875,-2.4375 0.1704,-3.15242 0.71735,-4.67836 2.8125,-7.0625 3.33759,-4.48191 4.5952,-9.627 6.1875,-14.9375 z"
     fill="#192828"
     id="path37" />
  <path
     d="m 18.413681,215.40051 c 15.18,0 30.36,0 46,0 -4.5,2.25 -4.5,2.25 -8.125977,2.22705 -0.811626,-2.4e-4 -1.623252,-4.9e-4 -2.459472,-7.3e-4 -0.843208,-0.0102 -1.686416,-0.0205 -2.555176,-0.031 -0.7823,-0.002 -1.5646,-0.004 -2.370605,-0.006 -2.912984,-0.0104 -5.825883,-0.0384 -8.73877,-0.0642 -9.77625,-0.0619 -9.77625,-0.0619 -19.75,-0.125 0,22.44 0,44.88 0,68 -0.33,0 -0.66,0 -1,0 -0.33,-23.1 -0.66,-46.2 -1,-70 z"
     fill="#e8edee"
     id="path38" />
  <path
     d="m 445.41368,173.40051 c 0.66,0 1.32,0 2,0 0,9.24 0,18.48 0,28 -24.42,0 -48.84,0 -74,0 0,-0.33 0,-0.66 0,-1 23.1,0 46.2,0 70,0 0,-0.66 0,-1.32 0,-2 0.66,0 1.32,0 2,0 0,-8.25 0,-16.5 0,-25 z"
     fill="#eef2ef"
     id="path39" />
  <path
     d="m 329.41368,317.40051 c 1.32,1.32 2.64,2.64 4,4 0.66,-1.32 1.32,-2.64 2,-4 0.33,0 0.66,0 1,0 0.66,2.64 1.32,5.28 2,8 -1.32,-0.33 -2.64,-0.66 -4,-1 -0.66,0 -1.32,0 -2,0 -2.21748,2.30276 -2.9676,3.5248 -3.1875,6.75 0.0619,0.7425 0.12375,1.485 0.1875,2.25 -0.99,-0.33 -1.98,-0.66 -3,-1 -2.14256,0.38933 -2.14256,0.38933 -4,1 -0.66,-1.32 -1.32,-2.64 -2,-4 0.5659,-0.69868 1.1318,-1.39735 1.71484,-2.11719 0.73348,-0.91008 1.46696,-1.82016 2.22266,-2.75781 0.7309,-0.90493 1.4618,-1.80985 2.21484,-2.74219 1.85129,-2.22784 1.85129,-2.22784 2.84766,-4.38281 z"
     fill="#e5eaf1"
     id="path43" />
  <path
     d="m 310.41368,339.40051 c 1.03906,1.86328 1.03906,1.86328 2,4 -0.625,2.1875 -0.625,2.1875 -2,4 -2.125,0.75 -2.125,0.75 -4,1 -0.0412,0.76312 -0.0825,1.52625 -0.125,2.3125 -0.875,2.6875 -0.875,2.6875 -3.75,4.4375 -2.0195,0.80779 -4.06155,1.56218 -6.125,2.25 -0.99,-0.99 -1.98,-1.98 -3,-3 0.69481,-0.54141 1.38961,-1.08282 2.10547,-1.64063 3.18177,-2.59351 6.19623,-5.32173 9.20703,-8.10937 0.54979,-0.5066 1.09957,-1.01321 1.66602,-1.53516 1.34183,-1.23682 2.68185,-2.47563 4.02148,-3.71484 z"
     fill="#d6dbda"
     id="path44" />
  <path
     d="m 110.41368,11.400507 c 0.99,0.33 1.98,0.66 3,1 0.0506,6.372036 0.0857,12.74402 0.10986,19.116211 0.0101,2.168965 0.0237,4.337916 0.041,6.506836 0.0242,3.112664 0.0356,6.22515 0.0444,9.33789 0.0103,0.973998 0.0206,1.947995 0.0313,2.951508 1.6e-4,0.900783 3.1e-4,1.801566 4.6e-4,2.729645 0.004,0.794979 0.009,1.589958 0.0135,2.409027 -0.24051,1.948883 -0.24051,1.948883 -2.24051,3.948883 -1.70213,-3.604519 -2.02651,-5.225112 -1,-9 0.0823,-1.342738 0.11789,-2.688928 0.11353,-4.03418 -1.2e-4,-1.17076 -1.2e-4,-1.17076 -2.3e-4,-2.365173 -0.005,-0.832432 -0.0103,-1.664865 -0.0156,-2.522522 -0.001,-0.859986 -0.003,-1.719972 -0.004,-2.606018 -0.006,-2.740738 -0.0181,-5.481394 -0.0309,-8.222107 -0.005,-1.860676 -0.01,-3.721353 -0.0137,-5.582031 -0.011,-4.556022 -0.0283,-9.111981 -0.0488,-13.667969 z"
     fill="#262a2d"
     id="path46" />
  <path
     d="m 149.41368,326.40051 c 3,1.8125 3,1.8125 6,4 0,0.99 0,1.98 0,3 -0.66,0.66 -1.32,1.32 -2,2 0.33,0.76312 0.66,1.52625 1,2.3125 1,2.6875 1,2.6875 1,5.6875 -5.02692,-0.457 -8.14896,-2.99242 -12,-6 0.33,-0.99 0.66,-1.98 1,-3 2.0625,-0.6875 2.0625,-0.6875 4,-1 -0.30937,-1.17563 -0.30937,-1.17563 -0.625,-2.375 -0.12375,-0.86625 -0.2475,-1.7325 -0.375,-2.625 0.66,-0.66 1.32,-1.32 2,-2 z"
     fill="#e4e8e3"
     id="path47" />
  <path
     d="m 68.413681,198.40051 c 1.98,0.66 3.96,1.32 6,2 -0.66,1.32 -1.32,2.64 -2,4 -1.32,0 -2.64,0 -4,0 0,-0.66 0,-1.32 0,-2 -11.22,0 -22.44,0 -34,0 0,-0.33 0,-0.66 0,-1 3.892498,-0.89897 7.587912,-1.17527 11.578125,-1.28125 1.242656,-0.0374 2.485313,-0.0748 3.765625,-0.11328 2.61978,-0.0707 5.239572,-0.14105 7.859375,-0.21094 1.2375,-0.0374 2.475,-0.0748 3.75,-0.11328 1.135986,-0.0303 2.271972,-0.0606 3.442382,-0.0918 2.53182,0.1012 2.53182,0.1012 3.604493,-1.18945 z"
     fill="#cccfca"
     id="path48" />
  <path
     d="m 126.41368,155.40051 c 0.66,0 1.32,0 2,0 0,0.99 0,1.98 0,3 1.98,0.66 3.96,1.32 6,2 -1.05495,4.74727 -2.23198,8.7458 -6,12 -0.9812,-3.05264 -0.9812,-4.94737 0,-8 0.99,0 1.98,0 3,0 -0.33,-0.66 -0.66,-1.32 -1,-2 -0.59812,0.165 -1.19625,0.33 -1.8125,0.5 -2.1875,0.5 -2.1875,0.5 -5.1875,0.5 0,0.99 0,1.98 0,3 -0.66,0 -1.32,0 -2,0 0,-0.66 0,-1.32 0,-2 -0.66,-0.33 -1.32,-0.66 -2,-1 1.118,-1.33921 2.24462,-2.67123 3.375,-4 0.93973,-1.11375 0.93973,-1.11375 1.89844,-2.25 0.56976,-0.5775 1.13953,-1.155 1.72656,-1.75 z"
     fill="#e8e9ea"
     id="path49" />
  <path
     d="m 95.413681,343.40051 c 0.33,0 0.66,0 1,0 0.33,10.89 0.66,21.78 1,33 -1.65,0 -3.3,0 -5,0 0.132773,-1.29293 0.265547,-2.58586 0.402343,-3.91797 0.986645,-9.68739 1.923988,-19.36702 2.597657,-29.08203 z"
     fill="#e4e7e7"
     id="path53" />
  <path
     d="m 131.41368,109.40051 c 1.32,0 2.64,0 4,0 0.33,0.99 0.66,1.98 1,3 -1.6232,1.31473 -3.24861,2.62671 -4.875,3.9375 -0.90492,0.7309 -1.80984,1.46179 -2.74219,2.21484 -2.38281,1.84766 -2.38281,1.84766 -4.38281,2.84766 -1,-6.625 -1,-6.625 -1,-10 2.46075,-1.23038 4.27976,-1 7,-1 0.33,-0.33 0.66,-0.66 1,-1 z"
     fill="#11181b"
     id="path55" />
  <path
     d="m 129.41368,278.40051 c 0.33,0 0.66,0 1,0 0.33,2.64 0.66,5.28 1,8 0.33,0 0.66,0 1,0 0,6.93 0,13.86 0,21 -0.99,0 -1.98,0 -3,0 0,-9.57 0,-19.14 0,-29 z"
     fill="#1e2122"
     id="path58" />
  <path
     d="m 200.41368,389.40051 c 0.93424,3.01031 1.0445,3.8665 0,7 0.66,0.33 1.32,0.66 2,1 -0.99,5.28 -1.98,10.56 -3,16 -0.33,0 -0.66,0 -1,0 -0.75167,-7.69119 -1.13691,-15.27228 -1,-23 0.99,0.495 0.99,0.495 2,1 0.33,-0.66 0.66,-1.32 1,-2 z"
     fill="#e2e2e2"
     id="path59" />
  <path
     d="m 248.41368,374.40051 c -1.01976,2.78117 -1.66391,3.81833 -4.3125,5.25 -2.72658,0.7609 -4.87339,0.98451 -7.6875,0.75 -0.33,-0.33 -0.66,-0.66 -1,-1 -1.3252,-0.68268 -2.65812,-1.35071 -4,-2 0.33,-0.66 0.66,-1.32 1,-2 2.83594,-0.66797 2.83594,-0.66797 6.375,-1.1875 1.16274,-0.17918 2.32547,-0.35836 3.52344,-0.54297 3.10156,-0.26953 3.10156,-0.26953 6.10156,0.73047 z"
     fill="#d7d8d2"
     id="path60" />
  <path
     d="m 296.85118,325.90051 c 2.63084,0.51333 4.05574,0.33558 6.5625,-0.5 -2.24699,5.68357 -5.00933,7.79843 -10,11 0,-2.64 0,-5.28 0,-8 -0.99,0.33 -1.98,0.66 -3,1 0.33,-0.99 0.66,-1.98 1,-3 3,-1 3,-1 5.4375,-0.5 z"
     fill="#daddd5"
     id="path61" />
  <path
     d="m 356.41368,453.40051 c 0.33,0 0.66,0 1,0 0,3.63 0,7.26 0,11 -14.19,0 -28.38,0 -43,0 0,-0.33 0,-0.66 0,-1 13.53,0 27.06,0 41,0 -0.495,-1.485 -0.495,-1.485 -1,-3 0.59794,-2.35189 1.25882,-4.68926 2,-7 z"
     fill="#e4e7e3"
     id="path62" />
  <path
     d="m 369.41368,274.40051 c 0.33,0 0.66,0 1,0 0.33,4.95 0.66,9.9 1,15 -0.66,0 -1.32,0 -2,0 -0.33,0.99 -0.66,1.98 -1,3 0,-0.66 0,-1.32 0,-2 -0.66,0 -1.32,0 -2,0 -1.64451,-6.44101 -0.055,-10.21783 3,-16 z"
     fill="#1d242d"
     id="path64" />
  <path
     d="m 445.41368,173.40051 c 0.66,0 1.32,0 2,0 0,8.91 0,17.82 0,27 -1.32,-0.33 -2.64,-0.66 -4,-1 0.66,-0.33 1.32,-0.66 2,-1 0,-8.25 0,-16.5 0,-25 z"
     fill="#e1e8e7"
     id="path65" />
  <path
     d="m 395.41368,35.400507 c 1.98,0 3.96,0 6,0 -0.33,0.66 -0.66,1.32 -1,2 -0.66,0 -1.32,0 -2,0 0.0232,1.145976 0.0464,2.291953 0.0703,3.472656 0.0188,1.529941 0.037,3.05989 0.0547,4.589844 0.0168,0.752168 0.0335,1.504336 0.0508,2.279297 0.0429,4.95148 -0.59179,8.962348 -2.17578,13.658203 -0.33,0 -0.66,0 -1,0 0,-8.58 0,-17.16 0,-26 z"
     fill="#070b0f"
     id="path66" />
  <path
     d="m 95.413681,429.40051 c 0.33,0 0.66,0 1,0 0,11.88 0,23.76 0,36 -3.3,0 -6.6,0 -10,0 0,-0.66 0,-1.32 0,-2 2.914827,-0.80968 4.461132,-1.21846 7.3125,-0.0625 0.835312,0.52593 0.835312,0.52593 1.6875,1.0625 -0.167498,-0.51208 -0.334996,-1.02416 -0.507569,-1.55176 -0.656925,-3.26607 -0.494126,-6.29118 -0.371338,-9.62012 0.03542,-1.02362 0.03542,-1.02362 0.07155,-2.06793 0.07631,-2.17029 0.160472,-4.3402 0.244858,-6.51019 0.05325,-1.47525 0.105994,-2.95051 0.158203,-4.42578 0.128816,-3.60831 0.264679,-7.21632 0.404297,-10.82422 z"
     fill="#e7edeb"
     id="path68" />
  <path
     d="m 313.41368,286.40051 c 1.65,0 3.3,0 5,0 -0.33,0.99 -0.66,1.98 -1,3 -5.21442,0.14293 -10.42886,0.28533 -15.64331,0.42724 -1.77409,0.0484 -3.54818,0.0969 -5.32227,0.14551 -2.54922,0.0699 -5.09846,0.13924 -7.6477,0.2085 -0.79385,0.0219 -1.58769,0.0437 -2.40559,0.0663 -2.99479,0.081 -5.98509,0.15247 -8.98113,0.15247 3.44136,-3.44136 8.31083,-2.81296 13,-3 4.0712,0.0254 8.12305,0.21068 12.1875,0.4375 1.04736,0.0522 2.09473,0.10441 3.17383,0.1582 2.54666,0.12791 5.09274,0.26277 7.63867,0.4043 0,-0.66 0,-1.32 0,-2 z"
     fill="#f0f7f4"
     id="path70" />
  <path
     d="m 261.41368,202.40051 c 0.99,0.33 1.98,0.66 3,1 1.21632,3.4569 2,6.32832 2,10 -0.66,0 -1.32,0 -2,0 -0.33,0.66 -0.66,1.32 -1,2 -0.67668,-1.24461 -1.34095,-2.49597 -2,-3.75 -0.37125,-0.6961 -0.7425,-1.39219 -1.125,-2.10938 -0.875,-2.14062 -0.875,-2.14062 -0.875,-6.14062 0.66,-0.33 1.32,-0.66 2,-1 z"
     fill="#eceeee"
     id="path72" />
  <path
     d="m 121.41368,149.40051 c 1.32,0.66 2.64,1.32 4,2 -1.8125,2 -1.8125,2 -4,4 -2.62114,0 -4.50935,-0.31293 -7,-1 -0.66,1.65 -1.32,3.3 -2,5 -0.99,-0.33 -1.98,-0.66 -3,-1 0.39337,-2.28156 0.91286,-3.867 2.1875,-5.8125 1.8125,-1.1875 1.8125,-1.1875 5,-0.875 1.39219,0.34031 1.39219,0.34031 2.8125,0.6875 0.66,-0.99 1.32,-1.98 2,-3 z"
     fill="#04060a"
     id="path73" />
  <path
     d="m 97.413681,338.40051 c 1.98,0.99 1.98,0.99 3.999999,2 0.75,3.625 0.75,3.625 1,7 -0.99,0.33 -1.98,0.66 -2.999999,1 -0.33,4.29 -0.66,8.58 -1,13 -0.33,0 -0.66,0 -1,0 0,-7.59 0,-15.18 0,-23 z"
     fill="#07090c"
     id="path74" />
  <path
     d="m 337.41368,311.40051 c 0.84099,4.01804 1.05405,7.01803 0,11 -0.66,-1.32 -1.32,-2.64 -2,-4 -0.99,1.485 -0.99,1.485 -2,3 -0.99,-0.33 -1.98,-0.66 -3,-1 0.4685,-4.21652 2.05441,-9 7,-9 z"
     fill="#f0f2fa"
     id="path75" />
  <path
     d="m 394.41368,290.40051 c 13.2,0 26.4,0 40,0 0,0.33 0,0.66 0,1 -0.95262,0.0606 -1.90523,0.12117 -2.88672,0.18359 -1.25426,0.0838 -2.50851,0.16758 -3.80078,0.25391 -1.24137,0.0812 -2.48273,0.16242 -3.76172,0.24609 -3.45957,0.23999 -3.45957,0.23999 -6.44531,0.91406 -0.69481,0.13278 -1.38961,0.26555 -2.10547,0.40235 -0.33,-0.33 -0.66,-0.66 -1,-1 -1.48639,-0.15655 -2.97949,-0.25067 -4.47266,-0.31641 -1.34868,-0.0628 -1.34868,-0.0628 -2.72461,-0.12695 -0.94552,-0.0393 -1.89105,-0.0786 -2.86523,-0.11914 -0.94939,-0.0432 -1.89879,-0.0864 -2.87695,-0.13086 -2.35336,-0.10644 -4.70683,-0.20845 -7.06055,-0.30664 0,-0.33 0,-0.66 0,-1 z"
     fill="#000806"
     id="path79" />
  <path
     d="m 358.41368,437.40051 c 0.33,0 0.66,0 1,0 0.0606,1.10859 0.12117,2.21718 0.18359,3.35937 0.0844,1.46356 0.16909,2.9271 0.25391,4.39063 0.0393,0.72961 0.0786,1.45922 0.11914,2.21093 0.20483,3.46636 0.52856,6.6924 1.44336,10.03907 -0.66,0 -1.32,0 -2,0 -0.0823,3.04386 0.0239,5.07175 1,8 -0.99,0.33 -1.98,0.66 -3,1 -0.14973,-9.71615 0.30387,-19.3163 1,-29 z"
     fill="#03090d"
     id="path80" />
  <path
     d="m 205.41368,342.40051 c 0,1.98 0,3.96 0,6 -6.00181,0.21824 -11.19234,-0.49431 -17,-2 1.32,-0.33 2.64,-0.66 4,-1 0,-0.66 0,-1.32 0,-2 1.05188,0.20625 2.10375,0.4125 3.1875,0.625 4.07454,0.40077 6.23478,-1.625 9.8125,-1.625 z"
     fill="#222e31"
     id="path81" />
  <path
     d="m 318.41368,328.40051 c 0.66,0 1.32,0 2,0 -1.53644,3.6807 -3.78151,5.98775 -6.625,8.75 -1.2259,1.19882 -1.2259,1.19882 -2.47656,2.42187 -0.62649,0.60328 -1.25297,1.20656 -1.89844,1.82813 -0.99,-0.33 -1.98,-0.66 -3,-1 0.66,-0.33 1.32,-0.66 2,-1 0.34343,-1.33077 0.6762,-2.66432 1,-4 2,-2 2,-2 5,-3 0.66,-0.99 1.32,-1.98 2,-3 0.66,0.33 1.32,0.66 2,1 0,-0.66 0,-1.32 0,-2 z"
     fill="#070a0f"
     id="path84" />
  <path
     d="m 115.41368,245.40051 c 1.98,0 3.96,0 6,0 0,3.63 0,7.26 0,11 -0.99,0 -1.98,0 -3,0 -3,-6.5 -3,-6.5 -3,-11 z"
     fill="#0d0e10"
     id="path85" />
  <path
     d="m 314.41368,144.40051 c 0.59813,0.165 1.19625,0.33 1.8125,0.5 2.30094,0.61141 2.30094,0.61141 5.1875,0.5 1.33982,0.30624 2.67512,0.63451 4,1 -2.4332,2.94545 -4.32414,3.32286 -8,4 -0.33,0.66 -0.66,1.32 -1,2 -0.33,-0.33 -0.66,-0.66 -1,-1 0,1.32 0,2.64 0,4 -0.66,0 -1.32,0 -2,0 0,-1.98 0,-3.96 0,-6 0.99,0 1.98,0 3,0 -0.66,-1.65 -1.32,-3.3 -2,-5 z"
     fill="#05080e"
     id="path86" />
  <path
     d="m 249.41368,85.400507 c 0.99,0.33 1.98,0.66 3,1 0,0.66 0,1.32 0,2 1.98,0 3.96,0 6,0 0,0.66 0,1.32 0,2 1.65,0.33 3.3,0.66 5,1 0,0.66 0,1.32 0,2 -6.27,-1.32 -12.54,-2.64 -19,-4 1.65,-1.32 3.3,-2.64 5,-4 z"
     fill="#1a2022"
     id="path87" />
  <path
     d="m 291.41368,137.40051 c 1.44038,0.93307 2.87719,1.87165 4.3125,2.8125 0.80051,0.52207 1.60102,1.04414 2.42578,1.58203 1.98546,1.40937 3.61091,2.82643 5.26172,4.60547 -2.375,1.5625 -2.375,1.5625 -5,3 -0.66,-0.33 -1.32,-0.66 -2,-1 0.33,-0.66 0.66,-1.32 1,-2 -1.07808,-1.15303 -1.07808,-1.15303 -3,-2.25 -2.4803,-2.17027 -2.50188,-3.57447 -3,-6.75 z"
     fill="#d5d4d0"
     id="path89" />
  <path
     d="m 136.41368,137.40051 c 0.33,0.66 0.66,1.32 1,2 1.98,-0.66 3.96,-1.32 6,-2 0.33,0.99 0.66,1.98 1,3 -1.1197,1.00593 -2.24594,2.00458 -3.375,3 -0.62648,0.55687 -1.25297,1.11375 -1.89844,1.6875 -1.72656,1.3125 -1.72656,1.3125 -3.72656,1.3125 -0.625,-2.8125 -0.625,-2.8125 -1,-6 0.66,-0.99 1.32,-1.98 2,-3 z"
     fill="#13181d"
     id="path90" />
  <path
     d="m 110.41368,129.40051 c 0.33,0.66 0.66,1.32 1,2 3.02935,0.65772 3.02935,0.65772 6,1 -1.375,1.5 -1.375,1.5 -3,3 -0.66,0 -1.32,0 -2,0 0,0.99 0,1.98 0,3 -0.99,0 -1.98,0 -3,0 -0.99,0.495 -0.99,0.495 -2,1 -0.33,-0.66 -0.66,-1.32 -1,-2 -0.66,-0.33 -1.32,-0.66 -2,-1 0.80438,-0.59813 1.60875,-1.19625 2.4375,-1.8125 2.78578,-1.99698 2.78578,-1.99698 3.5625,-5.1875 z"
     fill="#dee2e4"
     id="path91" />
  <path
     d="m 104.41368,339.40051 c 0.33,0.66 0.66,1.32 1,2 4.09393,1.08759 4.09393,1.08759 8,0 0.33,0.99 0.66,1.98 1,3 -2,2 -2,2 -4.875,2.375 -3.125,-0.375 -3.125,-0.375 -5.5,-2.25 -1.625,-2.125 -1.625,-2.125 -1.625,-4.125 0.66,-0.33 1.32,-0.66 2,-1 z"
     fill="#e0e5e2"
     id="path92" />
  <path
     d="m 149.41368,378.40051 c -3.45024,2.09478 -3.45024,2.09478 -5.8125,1.6875 -0.72187,-0.22688 -1.44375,-0.45375 -2.1875,-0.6875 -1.21687,-0.14438 -2.43375,-0.28875 -3.6875,-0.4375 -1.09312,-0.18563 -2.18625,-0.37125 -3.3125,-0.5625 -0.33,-0.66 -0.66,-1.32 -1,-2 5.89631,-1.29432 10.86681,-1.42213 16,2 z"
     fill="#131d20"
     id="path93" />
  <path
     d="m 370.41368,429.40051 c 0.33,0 0.66,0 1,0 0.0251,0.91813 0.0501,1.83627 0.0759,2.78222 0.0953,3.41435 0.1945,6.82853 0.29639,10.24268 0.0432,1.47619 0.0849,2.95243 0.125,4.42871 0.058,2.12498 0.12157,4.24973 0.18627,6.37451 0.0367,1.27778 0.0733,2.55557 0.11109,3.87207 0.16295,2.61891 0.43479,4.80997 1.20532,7.29981 -1.485,0.495 -1.485,0.495 -3,1 0,-11.88 0,-23.76 0,-36 z"
     fill="#cacfd3"
     id="path96" />
  <path
     d="m 356.41368,209.40051 c 3.32446,6.06224 4.36109,13.13938 4,20 -0.66,0 -1.32,0 -2,0 -0.5287,-2.95713 -1.04827,-5.91536 -1.5625,-8.875 -0.15146,-0.84176 -0.30293,-1.68352 -0.45898,-2.55078 -0.13858,-0.80567 -0.27715,-1.61133 -0.41993,-2.44141 -0.13092,-0.74363 -0.26184,-1.48726 -0.39672,-2.25342 -0.16187,-1.87939 -0.16187,-1.87939 0.83813,-3.87939 z"
     fill="#191d18"
     id="path98" />
  <path
     d="m 93.413681,169.40051 c 1.65,0 3.3,0 5,0 -1.460325,5.31027 -3.98321,9.4633 -7,14 -1.177909,-3.53373 -0.823751,-5.40545 0,-9 0.66,-0.99 1.32,-1.98 2,-3 0,-0.66 0,-1.32 0,-2 z"
     fill="#e9e7e5"
     id="path99" />
  <path
     d="m 149.41368,136.40051 c 0.99,0.33 1.98,0.66 3,1 0,0.66 0,1.32 0,2 0.63474,1.34882 1.29849,2.68466 2,4 -0.94875,0.45375 -1.8975,0.9075 -2.875,1.375 -3.12814,1.42738 -3.12814,1.42738 -5.125,3.625 -0.33,-1.65 -0.66,-3.3 -1,-5 0.99,0 1.98,0 3,0 -0.33,-1.98 -0.66,-3.96 -1,-6 0.66,-0.33 1.32,-0.66 2,-1 z"
     fill="#e6e8e2"
     id="path100" />
  <path
     d="m 126.41368,119.40051 c 0.99,0.33 1.98,0.66 3,1 -0.1875,1.8125 -0.1875,1.8125 -1,4 -2.375,1.625 -2.375,1.625 -5,3 -0.99,0.66 -1.98,1.32 -3,2 -0.99,-0.33 -1.98,-0.66 -3,-1 0,-0.66 0,-1.32 0,-2 1.17563,-0.12375 1.17563,-0.12375 2.375,-0.25 2.7514,-0.46611 2.7514,-0.46611 3.8125,-2.6875 0.26813,-0.68063 0.53625,-1.36125 0.8125,-2.0625 0.66,-0.66 1.32,-1.32 2,-2 z"
     fill="#e4e9e5"
     id="path101" />
  <path
     d="m 437.41368,463.40051 c 0.99,0.495 0.99,0.495 2,1 -0.99,0.495 -0.99,0.495 -2,1 0,-0.66 0,-1.32 0,-2 z m -1,2 c 1.65,0.33 3.3,0.66 5,1 -1.3809,3.33717 -2.82012,5.22301 -6,7 -2.25,-0.3125 -2.25,-0.3125 -4,-1 0,-0.66 0,-1.32 0,-2 1.65,-0.66 3.3,-1.32 5,-2 0,-0.99 0,-1.98 0,-3 z"
     fill="#080d0d"
     id="path103" />
  <path
     d="m 113.41368,166.40051 c 0.99,0.99 1.98,1.98 3,3 -1.11631,1.83863 -2.2433,3.67079 -3.375,5.5 -0.62648,1.02093 -1.25297,2.04187 -1.89844,3.09375 -0.56976,0.79406 -1.13953,1.58812 -1.72656,2.40625 -0.66,0 -1.32,0 -2,0 -0.33,-0.99 -0.66,-1.98 -1,-3 2,-2 2,-2 5,-3 -0.33,-1.65 -0.66,-3.3 -1,-5 0.99,0 1.98,0 3,0 0,-0.99 0,-1.98 0,-3 z"
     fill="#0e1922"
     id="path105" />
  <path
     d="m 145.41368,147.40051 c 0,0.66 0,1.32 0,2 1.45833,1.62514 1.45833,1.62514 3,3 -0.99,0.99 -1.98,1.98 -3,3 -2.475,-0.99 -2.475,-0.99 -5,-2 0,-1.65 0,-3.3 0,-5 3,-1 3,-1 5,-1 z"
     fill="#e7e7e2"
     id="path106" />
  <path
     d="m 182.41368,135.40051 c 5.61,0 11.22,0 17,0 0,0.33 0,0.66 0,1 -2.31,0.33 -4.62,0.66 -7,1 0,0.66 0,1.32 0,2 -1.98,0 -3.96,0 -6,0 -0.33,-0.66 -0.66,-1.32 -1,-2 -0.99,-0.66 -1.98,-1.32 -3,-2 z"
     fill="#070d0e"
     id="path107" />
  <path
     d="m 282.41368,189.40051 c 0.33,0 0.66,0 1,0 0,3.63 0,7.26 0,11 -1.65,0.33 -3.3,0.66 -5,1 0,-3.3 0,-6.6 0,-10 0.99,1.32 1.98,2.64 3,4 0.33,-1.98 0.66,-3.96 1,-6 z"
     fill="#858f8d"
     id="path109" />
  <path
     d="m 275.41368,248.40051 c 1.98,0.66 3.96,1.32 6,2 -0.98094,2.45235 -1.68704,3.78092 -3.875,5.3125 -2.47509,0.80076 -3.70788,0.55076 -6.125,-0.3125 0.99,-0.66 1.98,-1.32 3,-2 0.72965,-2.56283 0.72965,-2.56283 1,-5 z"
     fill="#050a0a"
     id="path110" />
  <path
     d="m 106.41368,136.40051 c 0.33,0.99 0.66,1.98 1,3 0.99,-0.99 1.98,-1.98 3,-3 0,0.66 0,1.32 0,2 0.66,0 1.32,0 2,0 0.33,-0.66 0.66,-1.32 1,-2 0,1.65 0,3.3 0,5 -1.36125,-0.0309 -1.36125,-0.0309 -2.75,-0.0625 -2.67673,0.0515 -4.71988,0.284 -7.25,1.0625 -0.33,-0.99 -0.66,-1.98 -1,-3 1,-2 1,-2 4,-3 z"
     fill="#e6e9ed"
     id="path111" />
  <path
     d="m 111.41368,347.40051 c 0.33,0.66 0.66,1.32 1,2 0.66,0 1.32,0 2,0 -0.1534,0.97066 -0.3068,1.94132 -0.46484,2.9414 -0.61726,4.3208 -0.86996,8.64001 -1.09766,12.9961 -0.0432,0.77923 -0.0864,1.55847 -0.13086,2.36132 -0.10492,1.90025 -0.20616,3.80069 -0.30664,5.70118 -0.33,0 -0.66,0 -1,0 -0.19584,-4.14549 -0.38028,-8.2914 -0.5625,-12.4375 -0.0561,-1.18401 -0.11215,-2.36801 -0.16992,-3.58789 -0.0483,-1.12471 -0.0967,-2.24942 -0.14649,-3.40821 -0.0471,-1.04212 -0.0943,-2.08425 -0.14282,-3.15796 0.0217,-2.40844 0.0217,-2.40844 1.02173,-3.40844 z"
     fill="#eceff0"
     id="path112" />
  <path
     d="m 260.41368,382.40051 c 0.66,0.33 1.32,0.66 2,1 -0.66,1.32 -1.32,2.64 -2,4 0.99,0 1.98,0 3,0 0,0.66 0,1.32 0,2 -2.97,-0.33 -5.94,-0.66 -9,-1 2.37736,-4.75472 2.37736,-4.75472 6,-6 z"
     fill="#161919"
     id="path113" />
  <path
     d="m 270.41368,324.40051 c 0.99,0.495 0.99,0.495 2,1 4.14504,0.24787 4.14504,0.24787 8,-1 0,1.65 0,3.3 0,5 -1.65,0.33 -3.3,0.66 -5,1 0,-0.66 0,-1.32 0,-2 -1.65,0.66 -3.3,1.32 -5,2 0,-1.98 0,-3.96 0,-6 z"
     fill="#c2cbbd"
     id="path114" />
  <path
     d="m 266.41368,213.40051 c 2.31,0 4.62,0 7,0 0.33,0.99 0.66,1.98 1,3 -3.75,3 -3.75,3 -6,3 -0.33,-0.66 -0.66,-1.32 -1,-2 -0.99,0.495 -0.99,0.495 -2,1 0.33,-1.65 0.66,-3.3 1,-5 z"
     fill="#eef1ee"
     id="path115" />
  <path
     d="m 456.41368,68.400507 c 3.09593,3.508719 4.74195,6.491974 6,11 -0.99,0 -1.98,0 -3,0 0,-1.32 0,-2.64 0,-4 -0.99,0 -1.98,0 -3,0 -0.66,-1.98 -1.32,-3.96 -2,-6 0.66,-0.33 1.32,-0.66 2,-1 z"
     fill="#191e23"
     id="path116" />
  <path
     d="m 362.41368,0.4005069 c 0.66,0.33 1.32,0.66 2,1 -1.3125,3.4375 -1.3125,3.4375 -3,7 -0.99,0.33 -1.98,0.66 -3,1 -0.99,-0.99 -1.98,-1.98 -3,-3 2.31,-1.98 4.62,-3.96 7,-6 z"
     fill="#111a1c"
     id="path117" />
  <path
     d="m 161.41368,333.40051 c 3.3,1.65 6.6,3.3 10,5 -0.99,1.485 -0.99,1.485 -2,3 -0.66,0 -1.32,0 -2,0 0,-0.66 0,-1.32 0,-2 -1.32,0.33 -2.64,0.66 -4,1 0,-0.99 0,-1.98 0,-3 -0.66,-0.33 -1.32,-0.66 -2,-1 0,-0.99 0,-1.98 0,-3 z"
     fill="#d5d6d7"
     id="path118" />
  <path
     d="m 355.41368,269.40051 c 2.17176,3.25763 2.46044,4.22439 2,8 -1.5,2.3125 -1.5,2.3125 -3,4 -0.99,-0.33 -1.98,-0.66 -3,-1 1.32,-3.63 2.64,-7.26 4,-11 z"
     fill="#dadfe3"
     id="path119" />
  <path
     d="m 112.41368,208.40051 c 0.33,0 0.66,0 1,0 0.92844,4.33273 0.92844,7.66726 0,12 -0.33,0 -0.66,0 -1,0 -0.33,2.97 -0.66,5.94 -1,9 -0.33,0 -0.66,0 -1,0 -0.20177,-7.35343 -0.21212,-13.94888 2,-21 z"
     fill="#333437"
     id="path120" />
  <path
     d="m 99.413681,140.40051 c 0.659999,0 1.319999,0 1.999999,0 0.93424,3.01031 1.0445,3.8665 0,7 -0.99,0 -1.979999,0 -2.999999,0 -0.33,0.66 -0.66,1.32 -1,2 -0.33,-0.99 -0.66,-1.98 -1,-3 -0.66,-0.33 -1.32,-0.66 -2,-1 1.32,-0.33 2.64,-0.66 4,-1 0.33,-1.32 0.66,-2.64 1,-4 z"
     fill="#e7eae6"
     id="path121" />
  <path
     d="m 46.413681,38.400507 c 1,3 1,3 0,6 -3.3,-0.66 -6.6,-1.32 -10,-2 3.137316,-2.091544 6.145354,-4 10,-4 z"
     fill="#121a1e"
     id="path123" />
  <path
     d="m 20.413681,429.40051 c 1.790685,2.68603 2.660558,4.66266 3.625,7.6875 0.26039,0.80824 0.520781,1.61648 0.789062,2.44922 0.19336,0.61488 0.386719,1.22976 0.585938,1.86328 -0.66,0.66 -1.32,1.32 -2,2 -3,-2 -3,-2 -4,-3 0.308624,-2.33673 0.644565,-4.66993 1,-7 0,-1.32 0,-2.64 0,-4 z"
     fill="#1b2024"
     id="path124" />
  <path
     d="m 116.41368,330.40051 c 0.66,0 1.32,0 2,0 0.33,0.66 0.66,1.32 1,2 0.66,-0.66 1.32,-1.32 2,-2 0,0.99 0,1.98 0,3 0.99,0.33 1.98,0.66 3,1 -0.99,0.66 -1.98,1.32 -3,2 -0.33,-0.33 -0.66,-0.66 -1,-1 -0.66,0.66 -1.32,1.32 -2,2 -1.32,-1.65 -2.64,-3.3 -4,-5 0.66,-0.66 1.32,-1.32 2,-2 z"
     fill="#1a1e23"
     id="path125" />
  <path
     d="m 463.41368,429.40051 c 0.66,0.99 1.32,1.98 2,3 -0.46094,2.26172 -0.46094,2.26172 -1.375,4.6875 -0.29648,0.80824 -0.59297,1.61648 -0.89844,2.44922 -0.23976,0.61488 -0.47953,1.22976 -0.72656,1.86328 -0.99,-0.99 -1.98,-1.98 -3,-3 0.47581,-1.31372 0.95575,-2.62595 1.4375,-3.9375 0.26684,-0.7309 0.53367,-1.4618 0.80859,-2.21485 0.75391,-1.84765 0.75391,-1.84765 1.75391,-2.84765 z"
     fill="#111c21"
     id="path128" />
  <path
     d="m 102.41368,268.40051 c 1.42945,2.35438 2.08661,3.48032 1.625,6.25 -0.20625,0.5775 -0.4125,1.155 -0.625,1.75 0.99,0.33 1.98,0.66 3,1 -0.33,0.66 -0.66,1.32 -1,2 -0.66,0 -1.32,0 -2,0 -0.33,0.66 -0.66,1.32 -1,2 -2.418628,-6.25998 -2.418628,-6.25998 -1,-10 0.33,-0.99 0.66,-1.98 1,-3 z"
     fill="#e7e7e6"
     id="path129" />
  <path
     d="m 204.41368,104.40051 c 0,1.32 0,2.64 0,4 -0.66,0 -1.32,0 -2,0 -0.33,-0.66 -0.66,-1.32 -1,-2 -3.3,0.33 -6.6,0.66 -10,1 0.33,-0.99 0.66,-1.98 1,-3 4.31649,-0.76174 7.74434,-1.16064 12,0 z"
     fill="#151f20"
     id="path130" />
  <path
     d="m 178.41368,104.40051 c -0.66,0.66 -1.32,1.32 -2,2 0,0.99 0,1.98 0,3 -1.65,0 -3.3,0 -5,0 -0.33,-1.65 -0.66,-3.3 -1,-5 3.28977,-1.09659 4.71304,-0.79953 8,0 z"
     fill="#e7ebe4"
     id="path131" />
  <path
     d="m 284.41368,429.40051 c 0.99,0 1.98,0 3,0 0.0816,4.16138 -0.0175,7.94725 -1,12 -0.66,-0.33 -1.32,-0.66 -2,-1 0,-3.63 0,-7.26 0,-11 z"
     fill="#dee1df"
     id="path132" />
  <path
     d="m 369.41368,289.40051 c 3.96,0.33 7.92,0.66 12,1 -0.99,1.485 -0.99,1.485 -2,3 -2.16406,0.29297 -2.16406,0.29297 -4.625,0.1875 -0.81726,-0.0271 -1.63453,-0.0541 -2.47656,-0.082 -0.93973,-0.0522 -0.93973,-0.0522 -1.89844,-0.10547 -0.33,-1.32 -0.66,-2.64 -1,-4 z"
     fill="#010b0e"
     id="path133" />
  <path
     d="m 99.413681,158.40051 c 1.649999,0 3.299999,0 4.999999,0 -0.49231,5.53846 -0.49231,5.53846 -3.0625,7.875 -0.95906,0.55687 -0.95906,0.55687 -1.937499,1.125 0.33,-1.32 0.659999,-2.64 0.999999,-4 -0.659999,-0.33 -1.319999,-0.66 -1.999999,-1 0.33,-1.32 0.66,-2.64 1,-4 z"
     fill="#ebebea"
     id="path134" />
  <path
     d="m 432.41368,453.40051 c 1.0625,1.8125 1.0625,1.8125 2,4 -0.33,0.99 -0.66,1.98 -1,3 -1.65,-0.33 -3.3,-0.66 -5,-1 0,-0.66 0,-1.32 0,-2 -0.66,-0.66 -1.32,-1.32 -2,-2 3,-2 3,-2 6,-2 z"
     fill="#111a1e"
     id="path135" />
  <path
     d="m 323.41368,327.40051 c 0.33,0.66 0.66,1.32 1,2 1.32,-0.33 2.64,-0.66 4,-1 0.33,1.65 0.66,3.3 1,5 -0.99,-0.33 -1.98,-0.66 -3,-1 -2.14256,0.38933 -2.14256,0.38933 -4,1 -0.66,-1.32 -1.32,-2.64 -2,-4 0.99,-0.66 1.98,-1.32 3,-2 z"
     fill="#eceef3"
     id="path136" />
  <path
     d="m 329.41368,314.40051 c 0.33,0.99 0.66,1.98 1,3 -1.8125,3.1875 -1.8125,3.1875 -4,6 -0.66,0 -1.32,0 -2,0 -0.33,-1.98 -0.66,-3.96 -1,-6 0.61875,-0.12375 1.2375,-0.2475 1.875,-0.375 2.31621,-0.49698 2.31621,-0.49698 4.125,-2.625 z"
     fill="#10242c"
     id="path137" />
  <path
     d="m 279.41368,302.40051 c 0.99,0.33 1.98,0.66 3,1 0,5.94 0,11.88 0,18 -0.33,0 -0.66,0 -1,0 -0.049,-0.85465 -0.098,-1.7093 -0.14844,-2.58985 -0.0748,-1.10472 -0.14953,-2.20945 -0.22656,-3.34765 -0.0696,-1.10215 -0.13922,-2.2043 -0.21094,-3.33985 -0.13664,-0.89847 -0.27328,-1.79695 -0.41406,-2.72265 -0.66,-0.33 -1.32,-0.66 -2,-1 0.33,-1.98 0.66,-3.96 1,-6 z"
     fill="#394947"
     id="path138" />
  <path
     d="m 372.41368,5.4005069 c 2.97,0.495 2.97,0.495 6,1 0.66,1.98 1.32,3.9600001 2,6.0000001 -0.66,0 -1.32,0 -2,0 -0.33,-0.33 -0.66,-0.66 -1,-1 -0.99,0 -1.98,0 -3,0 -2,-3.0000001 -2,-3.0000001 -2,-6.0000001 z"
     fill="#13191e"
     id="path139" />
  <path
     d="m 147.41368,374.40051 c 2.31,0.33 4.62,0.66 7,1 0,1.32 0,2.64 0,4 -2.76276,-0.52269 -5.32609,-1.1087 -8,-2 0.33,-0.99 0.66,-1.98 1,-3 z"
     fill="#d4d6d3"
     id="path140" />
  <path
     d="m 332.41368,278.40051 c 0.99,0 1.98,0 3,0 -0.60699,4.12751 -2.03811,7.33211 -4,11 -0.66,-1.32 -1.32,-2.64 -2,-4 0.66,0 1.32,0 2,0 -0.30937,-1.17563 -0.30937,-1.17563 -0.625,-2.375 -0.12375,-0.86625 -0.2475,-1.7325 -0.375,-2.625 0.66,-0.66 1.32,-1.32 2,-2 z"
     fill="#eaeee9"
     id="path141" />
  <path
     d="m 222.41368,134.40051 c 1.32,0.33 2.64,0.66 4,1 -0.33,0.99 -0.66,1.98 -1,3 -0.66,0 -1.32,0 -2,0 -0.33,0.66 -0.66,1.32 -1,2 -2.46279,0 -3.85224,-0.85453 -6,-2 1.65,-0.33 3.3,-0.66 5,-1 0.33,-0.99 0.66,-1.98 1,-3 z"
     fill="#d6dbd7"
     id="path142" />
  <path
     d="m 332.41368,151.40051 c 1.67543,0.28605 3.34385,0.61781 5,1 -0.66,1.65 -1.32,3.3 -2,5 0.66,0 1.32,0 2,0 0.33,1.32 0.66,2.64 1,4 -2.96404,-2.80805 -5.44499,-5.18316 -7,-9 0.33,-0.33 0.66,-0.66 1,-1 z"
     fill="#e3e4e2"
     id="path144" />
  <path
     d="m 115.41368,141.40051 c 2,0 4,0 6,0 -1.04875,2.62187 -1.64931,3.79371 -4.125,5.25 -0.61875,0.2475 -1.2375,0.495 -1.875,0.75 -0.38219,-1.65615 -0.71395,-3.32457 -1,-5 0.33,-0.33 0.66,-0.66 1,-1 z"
     fill="#eaedeb"
     id="path145" />
  <path
     d="m 446.41368,434.40051 c 0.66,0.99 1.32,1.98 2,3 -0.47437,0.45375 -0.94875,0.9075 -1.4375,1.375 -1.65278,1.55758 -1.65278,1.55758 -2.5625,3.625 -0.66,0 -1.32,0 -2,0 -1,-3 -1,-3 -0.25,-5.125 1.25,-1.875 1.25,-1.875 4.25,-2.875 z"
     fill="#0f1a1f"
     id="path147" />
  <path
     d="m 167.41368,336.40051 c 3.3,0 6.6,0 10,0 0,1.65 0,3.3 0,5 -4.15414,-1.22736 -6.43688,-2.32767 -10,-5 z"
     fill="#171b21"
     id="path148" />
  <path
     d="m 310.41368,291.40051 c 1.32,0 2.64,0 4,0 -0.33,1.98 -0.66,3.96 -1,6 -1.65,0.33 -3.3,0.66 -5,1 -0.125,-2.375 -0.125,-2.375 0,-5 0.66,-0.66 1.32,-1.32 2,-2 z"
     fill="#0a1118"
     id="path149" />
  <path
     d="m 361.41368,204.40051 c 0.33,2.97 0.66,5.94 1,9 -2,0 -2,0 -3.6875,-1.1875 -1.3125,-1.8125 -1.3125,-1.8125 -1.125,-4.4375 0.79266,-2.317 1.16394,-3.375 3.8125,-3.375 z"
     fill="#ede9e0"
     id="path150" />
  <path
     d="m 146.41368,123.40051 c -1.875,4.875 -1.875,4.875 -3,6 -1.99958,0.0408 -4.00045,0.0425 -6,0 5.8,-6 5.8,-6 9,-6 z"
     fill="#131819"
     id="path151" />
  <path
     d="m 285.41368,358.40051 c 0.66,0.66 1.32,1.32 2,2 -0.33,0.99 -0.66,1.98 -1,3 -2.97,0 -5.94,0 -9,0 2.55992,-2.01137 5.0459,-3.62846 8,-5 z"
     fill="#d6d9d3"
     id="path153" />
  <path
     d="m 290.41368,356.40051 c -3.96,1.98 -7.92,3.96 -12,6 0.33,-0.99 0.66,-1.98 1,-3 0.66,0 1.32,0 2,0 0,-0.66 0,-1.32 0,-2 3.80505,-1.79683 4.70601,-2.0735 9,-1 z"
     fill="#151a17"
     id="path154" />
  <path
     d="m 274.41368,303.40051 c 0.66,0 1.32,0 2,0 0,0.66 0,1.32 0,2 0.66,0 1.32,0 2,0 -0.75,5.75 -0.75,5.75 -3,8 -0.77843,-3.40563 -1.09978,-6.50766 -1,-10 z"
     fill="#e7edea"
     id="path155" />
  <path
     d="m 337.41368,303.40051 c 0.66,0.66 1.32,1.32 2,2 -0.95262,1.48285 -1.91228,2.96118 -2.875,4.4375 -0.53367,0.82371 -1.06734,1.64742 -1.61719,2.49609 -1.50781,2.06641 -1.50781,2.06641 -3.50781,3.06641 0.42595,-1.44097 0.86627,-2.87769 1.3125,-4.3125 0.24363,-0.80051 0.48727,-1.60102 0.73828,-2.42578 0.99104,-2.36137 2.02997,-3.60052 3.94922,-5.26172 z"
     fill="#172f33"
     id="path156" />
  <path
     d="m 276.41368,194.40051 c 0.33,0 0.66,0 1,0 0.33,3.96 0.66,7.92 1,12 -0.99,0.495 -0.99,0.495 -2,1 -1.44978,-2.34113 -2.04314,-3.5797 -1.75781,-6.35938 0.20883,-0.7889 0.41765,-1.57781 0.63281,-2.39062 0.20367,-0.79922 0.40734,-1.59844 0.61719,-2.42188 0.16758,-0.60328 0.33515,-1.20656 0.50781,-1.82812 z"
     fill="#eef3f0"
     id="path157" />
  <path
     d="m 85.413681,191.40051 c 0.66,0 1.32,0 2,0 -0.28318,1.60568 -0.576878,3.20952 -0.875,4.8125 -0.162422,0.89332 -0.324844,1.78664 -0.492188,2.70703 -0.632812,2.48047 -0.632812,2.48047 -2.632812,5.48047 -1.468455,-5.47333 -0.440388,-8.11923 2,-13 z"
     fill="#e7edeb"
     id="path158" />
  <path
     d="m 364.41368,186.40051 c 2.475,0.99 2.475,0.99 5,2 0,1.65 0,3.3 0,5 -0.99,-0.66 -1.98,-1.32 -3,-2 -0.99,0.99 -1.98,1.98 -3,3 0.33,-2.64 0.66,-5.28 1,-8 z"
     fill="#e9eae1"
     id="path159" />
  <path
     d="m 128.41368,135.40051 c 0.66,0.33 1.32,0.66 2,1 -0.92544,1.34173 -1.86577,2.6732 -2.8125,4 -0.52207,0.7425 -1.04414,1.485 -1.58203,2.25 -0.52981,0.5775 -1.05961,1.155 -1.60547,1.75 -0.99,0 -1.98,0 -3,0 1.55501,-3.81685 4.03596,-6.19196 7,-9 z"
     fill="#181c20"
     id="path160" />
  <path
     d="m 123.41368,133.40051 c 0.66,0 1.32,0 2,0 0.33,0.33 0.66,0.66 1,1 0.99,0 1.98,0 3,0 -1.61595,2.04119 -3.28564,4.04073 -5,6 -0.66,0 -1.32,0 -2,0 0.33,-2.31 0.66,-4.62 1,-7 z"
     fill="#edf1ed"
     id="path161" />
  <path
     d="m 95.413681,128.40051 c 0.33,0 0.66,0 1,0 0,4.62 0,9.24 0,14 -0.99,-0.33 -1.98,-0.66 -3,-1 0.144375,-0.84563 0.28875,-1.69125 0.4375,-2.5625 0.568379,-3.47343 1.074524,-6.95196 1.5625,-10.4375 z"
     fill="#e7ecec"
     id="path162" />
  <path
     d="m 9.4136806,66.400507 c 1.1594104,3.478231 0.7082084,5.458956 0,9 -1.32,0.33 -2.64,0.66 -4,1 1.0019344,-3.793037 1.8102423,-6.715364 4,-10 z"
     fill="#1e1f1f"
     id="path163" />
  <path
     d="m 376.41368,62.400507 c 0.66,0.99 1.32,1.98 2,3 -1.65,1.32 -3.3,2.64 -5,4 -0.66,-0.33 -1.32,-0.66 -2,-1 0.33,-1.65 0.66,-3.3 1,-5 0.99,0 1.98,0 3,0 0.33,-0.33 0.66,-0.66 1,-1 z"
     fill="#14191f"
     id="path165" />
  <path
     d="m 20.413681,462.40051 c 0.66,0 1.32,0 2,0 0.103125,0.63937 0.20625,1.27875 0.3125,1.9375 0.226875,0.68062 0.45375,1.36125 0.6875,2.0625 0.99,0.33 1.98,0.66 3,1 -0.33,0.99 -0.66,1.98 -1,3 -3,-1.8125 -3,-1.8125 -6,-4 0,-3 0,-3 1,-4 z"
     fill="#161a24"
     id="path167" />
  <path
     d="m 296.41368,351.40051 c 1.65,0.99 3.3,1.98 5,3 -0.99,1.485 -0.99,1.485 -2,3 -1.65,-0.33 -3.3,-0.66 -5,-1 -0.33,-0.99 -0.66,-1.98 -1,-3 0.99,-0.66 1.98,-1.32 3,-2 z"
     fill="#d4d7d1"
     id="path168" />
  <path
     d="m 112.41368,320.40051 c 0,2.83967 -0.40267,5.23735 -1,8 -1.65,-1.65 -3.3,-3.3 -5,-5 2,-1 4,-2 6,-3 z"
     fill="#171a1e"
     id="path169" />
  <path
     d="m 222.41368,141.40051 c 3.465,1.485 3.465,1.485 7,3 -0.99,1.485 -0.99,1.485 -2,3 -1.65,-0.33 -3.3,-0.66 -5,-1 -0.5625,-1.9375 -0.5625,-1.9375 -1,-4 0.33,-0.33 0.66,-0.66 1,-1 z"
     fill="#171b1d"
     id="path170" />
  <path
     d="m 273.41368,127.40051 c 2.64,0 5.28,0 8,0 0.99,1.98 1.98,3.96 3,6 -3.79101,-1.44951 -7.38746,-3.15173 -11,-5 0,-0.33 0,-0.66 0,-1 z"
     fill="#1b1d1d"
     id="path171" />
  <path
     d="m 446.41368,126.40051 c -0.25561,2.34312 -0.59271,4.67843 -1,7 -0.99,0.495 -0.99,0.495 -2,1 -0.0825,-0.78375 -0.165,-1.5675 -0.25,-2.375 -0.47806,-2.77249 -0.47806,-2.77249 -2.8125,-3.9375 -0.63937,-0.22688 -1.27875,-0.45375 -1.9375,-0.6875 2.89234,-0.82639 4.88742,-1 8,-1 z"
     fill="#d0d7cf"
     id="path172" />
  <path
     d="m 113.97618,126.33801 c 1.20656,0.0309 1.20656,0.0309 2.4375,0.0625 -0.66,1.32 -1.32,2.64 -2,4 0.99,0.66 1.98,1.32 3,2 -2.97,-0.495 -2.97,-0.495 -6,-1 -0.5625,-1.9375 -0.5625,-1.9375 -1,-4 1,-1 1,-1 3.5625,-1.0625 z"
     fill="#e1e6e9"
     id="path173" />
  <path
     d="m 327.41368,322.40051 c 0.33,1.98 0.66,3.96 1,6 -1.8125,0.625 -1.8125,0.625 -4,1 -0.99,-0.66 -1.98,-1.32 -3,-2 4.875,-5 4.875,-5 6,-5 z"
     fill="#d3d9de"
     id="path174" />
  <path
     d="m 282.41368,304.40051 c 2.64,0 5.28,0 8,0 -4.75,4.875 -4.75,4.875 -7,6 -0.33,-1.98 -0.66,-3.96 -1,-6 z"
     fill="#daded8"
     id="path175" />
  <path
     d="m 351.41368,284.40051 c 1.0625,1.8125 1.0625,1.8125 2,4 -0.33,0.99 -0.66,1.98 -1,3 -2.5625,1.1875 -2.5625,1.1875 -5,2 0,-0.99 0,-1.98 0,-3 0.66,-0.33 1.32,-0.66 2,-1 0.72159,-1.64363 1.39351,-3.31051 2,-5 z"
     fill="#f0f0f8"
     id="path176" />
  <path
     d="m 265.41368,261.40051 c 2.475,0.99 2.475,0.99 5,2 0,1.32 0,2.64 0,4 -1.32,0.33 -2.64,0.66 -4,1 -0.33,-2.31 -0.66,-4.62 -1,-7 z"
     fill="#cfd5d5"
     id="path177" />
  <path
     d="m 79.413681,255.40051 c 0.33,0 0.66,0 1,0 0.33,3.96 0.66,7.92 1,12 -0.33,-0.66 -0.66,-1.32 -1,-2 -0.66,0 -1.32,0 -2,0 -0.02689,-1.47907 -0.04635,-2.95828 -0.0625,-4.4375 -0.0116,-0.82371 -0.0232,-1.64743 -0.03516,-2.4961 0.09766,-2.0664 0.09766,-2.0664 1.097657,-3.0664 z"
     fill="#e4e7e4"
     id="path178" />
  <path
     d="m 327.41368,203.40051 c 0.99,0.33 1.98,0.66 3,1 -0.66,2.31 -1.32,4.62 -2,7 -2.13563,-2.13563 -2.63318,-3.06547 -3,-6 0.66,-0.66 1.32,-1.32 2,-2 z"
     fill="#e6ebef"
     id="path179" />
  <path
     d="m 239.41368,115.40051 c 0,0.66 0,1.32 0,2 0.99,0.33 1.98,0.66 3,1 -1.64666,-0.11357 -3.29236,-0.24118 -4.9375,-0.375 -0.91652,-0.0696 -1.83305,-0.13922 -2.77734,-0.21094 -1.13116,-0.20496 -1.13116,-0.20496 -2.28516,-0.41406 -0.33,-0.66 -0.66,-1.32 -1,-2 3.28977,-1.09659 4.71304,-0.79953 8,0 z"
     fill="#222523"
     id="path180" />
  <path
     d="m 126.41368,67.400507 c 1.5,1.1875 1.5,1.1875 3,3 0.1875,2.6875 0.1875,2.6875 0,5 -0.61875,-0.773438 -0.61875,-0.773438 -1.25,-1.5625 -0.5775,-0.474375 -1.155,-0.94875 -1.75,-1.4375 -2.16299,0.227577 -2.16299,0.227577 -4,1 1.15173,-2.468001 2.04784,-4.047836 4,-6 z"
     fill="#151a1f"
     id="path181" />
  <path
     d="m 69.413681,61.400507 c 0.99,0 1.98,0 3,0 0.33,1.65 0.66,3.3 1,5 -1.32,0.99 -2.64,1.98 -4,3 -0.981205,-3.052637 -0.981205,-4.947364 0,-8 z"
     fill="#161c21"
     id="path182" />
  <path
     d="m 103.41368,0.4005069 c -2.87914,2.8791399 -6.183421,3.7278073 -9.999999,5 -0.66,-0.66 -1.32,-1.32 -2,-2 4.2295,-2.41685712 7.12336,-3.34833144 11.999999,-3 z"
     fill="#181f1f"
     id="path183" />
  <path
     d="m 200.41368,389.40051 c 0.93424,3.01031 1.0445,3.8665 0,7 -0.66,0 -1.32,0 -2,0 -0.33,0.99 -0.66,1.98 -1,3 0,-2.97 0,-5.94 0,-9 0.99,0.495 0.99,0.495 2,1 0.33,-0.66 0.66,-1.32 1,-2 z"
     fill="#e9ebeb"
     id="path184" />
  <path
     d="m 262.41368,382.40051 c 0.33,0.66 0.66,1.32 1,2 0.66,0.33 1.32,0.66 2,1 0,0.66 0,1.32 0,2 1.32,0.66 2.64,1.32 4,2 -1.98,0 -3.96,0 -6,0 0,-0.66 0,-1.32 0,-2 -0.99,0 -1.98,0 -3,0 0.875,-3.875 0.875,-3.875 2,-5 z"
     fill="#030609"
     id="path185" />
  <path
     d="m 130.41368,347.40051 c 3.3,1.98 6.6,3.96 10,6 -1.98,0.99 -1.98,0.99 -4,2 0,-0.66 0,-1.32 0,-2 -0.61875,-0.2475 -1.2375,-0.495 -1.875,-0.75 -2.125,-1.25 -2.125,-1.25 -4.125,-5.25 z"
     fill="#cdd1cc"
     id="path187" />
  <path
     d="m 127.41368,262.40051 c 0.33,2.64 0.66,5.28 1,8 -0.99,0.495 -0.99,0.495 -2,1 -3,-5.75 -3,-5.75 -3,-8 3,-1 3,-1 4,-1 z"
     fill="#171a18"
     id="path188" />
  <path
     d="m 140.41368,155.40051 c 0.66,0.66 1.32,1.32 2,2 -2.97,2.97 -5.94,5.94 -9,9 0,-3 0,-3 2.375,-5.5 0.86625,-0.825 1.7325,-1.65 2.625,-2.5 0.66,-0.99 1.32,-1.98 2,-3 z"
     fill="#f5f7f7"
     id="path189" />
  <path
     d="m 23.413681,434.40051 c 0.99,0.495 0.99,0.495 2,1 0,0.99 0,1.98 0,3 1.32,0.33 2.64,0.66 4,1 -0.33,1.65 -0.66,3.3 -1,5 -2.339369,-2.1267 -3.806539,-4.06225 -5,-7 0,-0.99 0,-1.98 0,-3 z"
     fill="#e5e5e4"
     id="path190" />
  <path
     d="m 277.41368,320.40051 c 0.99,0.99 1.98,1.98 3,3 -0.99,1.485 -0.99,1.485 -2,3 -3.125,0.1875 -3.125,0.1875 -6,0 0.33,-0.66 0.66,-1.32 1,-2 0.66,0 1.32,0 2,0 0.66,-1.32 1.32,-2.64 2,-4 z"
     fill="#2b3f35"
     id="path191" />
  <path
     d="m 126.41368,313.40051 c 2.78392,1.39196 2.97899,3.15575 4,6 -1.65,0.33 -3.3,0.66 -5,1 -0.33,-1.32 -0.66,-2.64 -1,-4 0.66,-0.33 1.32,-0.66 2,-1 0,-0.66 0,-1.32 0,-2 z"
     fill="#dde0d8"
     id="path192" />
  <path
     d="m 354.41368,298.40051 c 1.32,0.33 2.64,0.66 4,1 -0.11362,1.48008 -0.24123,2.9591 -0.375,4.4375 -0.10441,1.23556 -0.10441,1.23556 -0.21094,2.49609 -0.13664,0.68191 -0.27328,1.36383 -0.41406,2.06641 -0.99,0.495 -0.99,0.495 -2,1 0.0326,-1.98568 0.0651,-3.97136 0.0977,-5.95703 -0.015,-2.24603 -0.015,-2.24603 -1.09766,-5.04297 z"
     fill="#eff2f2"
     id="path193" />
  <path
     d="m 79.413681,296.40051 c 0.66,0 1.32,0 2,0 0.36923,4.55384 0.36923,4.55384 -1.5,6.8125 -0.495,0.39187 -0.99,0.78375 -1.5,1.1875 -1.0625,-1.8125 -1.0625,-1.8125 -2,-4 0.33,-0.99 0.66,-1.98 1,-3 0.66,0.33 1.32,0.66 2,1 0,-0.66 0,-1.32 0,-2 z"
     fill="#e2e6e1"
     id="path194" />
  <path
     d="m 369.41368,274.40051 c 0.33,0 0.66,0 1,0 0,3.96 0,7.92 0,12 -0.33,-0.99 -0.66,-1.98 -1,-3 -0.66,0 -1.32,0 -2,0 0.66,-2.97 1.32,-5.94 2,-9 z"
     fill="#0e1118"
     id="path195" />
  <path
     d="m 266.41368,230.40051 c 3,1 3,1 4,3 0.66,-0.33 1.32,-0.66 2,-1 0.33,0.99 0.66,1.98 1,3 -1.65,0.33 -3.3,0.66 -5,1 -2,-3 -2,-3 -2,-6 z"
     fill="#030b13"
     id="path196" />
  <path
     d="m 81.413681,215.40051 c -0.33,3.3 -0.66,6.6 -1,10 -0.33,-1.32 -0.66,-2.64 -1,-4 -0.66,0 -1.32,0 -2,0 0.375,-2.4375 0.375,-2.4375 1,-5 2,-1 2,-1 3,-1 z"
     fill="#e2e9e9"
     id="path197" />
  <path
     d="m 117.41368,190.40051 c 0.33,0 0.66,0 1,0 0.36923,6.4 0.36923,6.4 -1.5,9.4375 -0.495,0.51562 -0.99,1.03125 -1.5,1.5625 -1.13644,-3.40932 -0.86748,-4.00336 0.4375,-7.1875 0.43119,-1.07315 0.43119,-1.07315 0.87109,-2.16797 0.22817,-0.5427 0.45633,-1.08539 0.69141,-1.64453 z"
     fill="#1e2222"
     id="path198" />
  <path
     d="m 282.41368,185.40051 c 1.03115,3.26913 0.9639,5.86041 0.5625,9.25 -0.10184,0.89203 -0.20367,1.78406 -0.30859,2.70312 -0.12569,1.0132 -0.12569,1.0132 -0.25391,2.04688 -1.3758,-2.66212 -2.37063,-5.06297 -3,-8 0.66,0 1.32,0 2,0 0.33,-1.98 0.66,-3.96 1,-6 z"
     fill="#1e2827"
     id="path199" />
  <path
     d="m 333.41368,156.40051 c 2.66735,2.48953 4.55746,4.63408 6,8 -1.65,0 -3.3,0 -5,0 -0.33,-2.64 -0.66,-5.28 -1,-8 z"
     fill="#191e22"
     id="path200" />
  <path
     d="m 326.41368,143.40051 c 2.79873,2.52788 4.45773,4.20411 5,8 -2.53636,-1.01455 -3.79351,-1.68536 -5.3125,-4 -0.22687,-0.66 -0.45375,-1.32 -0.6875,-2 0.33,-0.66 0.66,-1.32 1,-2 z"
     fill="#e3e6e5"
     id="path201" />
  <path
     d="m 159.41368,116.40051 c -0.66,1.32 -1.32,2.64 -2,4 -2.31,0 -4.62,0 -7,0 5.21739,-4 5.21739,-4 9,-4 z"
     fill="#18201e"
     id="path202" />
  <path
     d="m 277.41368,111.40051 c 2.94888,0.50842 5.37372,1.59306 8,3 0,0.66 0,1.32 0,2 -3.82097,-0.53069 -6.06171,-1.49702 -9,-4 0.33,-0.33 0.66,-0.66 1,-1 z"
     fill="#d1d3d0"
     id="path203" />
  <path
     d="m 142.41368,102.40051 c 0.66,0.33 1.32,0.66 2,1 0,1.32 0,2.64 0,4 -0.99,0.33 -1.98,0.66 -3,1 -0.66,-1.32 -1.32,-2.64 -2,-4 0.99,-0.66 1.98,-1.32 3,-2 z"
     fill="#181d1e"
     id="path204" />
  <path
     d="m 109.41368,465.40051 c 4.29,0.33 8.58,0.66 13,1 0,0.33 0,0.66 0,1 -1.27875,0.14437 -2.5575,0.28875 -3.875,0.4375 -2.38193,0.26892 -3.96953,0.48476 -6.125,1.5625 0,-0.66 0,-1.32 0,-2 -0.99,-0.33 -1.98,-0.66 -3,-1 0,-0.33 0,-0.66 0,-1 z"
     fill="#030d10"
     id="path205" />
  <path
     d="m 196.41368,376.40051 c 2.97,0 5.94,0 9,0 0,0.66 0,1.32 0,2 -2.8125,0.6875 -2.8125,0.6875 -6,1 -0.99,-0.99 -1.98,-1.98 -3,-3 z"
     fill="#e4eae4"
     id="path206" />
  <path
     d="m 158.41368,341.40051 c 2.468,1.15173 4.04784,2.04783 6,4 -0.66,0 -1.32,0 -2,0 0,0.66 0,1.32 0,2 -1.32,-0.33 -2.64,-0.66 -4,-1 0,-1.65 0,-3.3 0,-5 z"
     fill="#e5eae7"
     id="path207" />
  <path
     d="m 205.41368,320.40051 c 1.67543,0.28605 3.34385,0.61781 5,1 -0.33,1.32 -0.66,2.64 -1,4 -1.32,0 -2.64,0 -4,0 -0.5625,-1.9375 -0.5625,-1.9375 -1,-4 0.33,-0.33 0.66,-0.66 1,-1 z"
     fill="#131d21"
     id="path208" />
  <path
     d="m 215.41368,316.40051 c 0.625,1.8125 0.625,1.8125 1,4 -0.99,1.485 -0.99,1.485 -2,3 -1.32,-0.66 -2.64,-1.32 -4,-2 1.65,-1.65 3.3,-3.3 5,-5 z"
     fill="#ced9dd"
     id="path209" />
  <path
     d="m 216.41368,309.40051 c 1.0625,1.8125 1.0625,1.8125 2,4 -0.33,0.99 -0.66,1.98 -1,3 -2.475,-0.99 -2.475,-0.99 -5,-2 0.66,-0.33 1.32,-0.66 2,-1 0.33,-0.99 0.66,-1.98 1,-3 0.33,-0.33 0.66,-0.66 1,-1 z"
     fill="#11191e"
     id="path210" />
  <path
     d="m 279.41368,254.40051 c 0,0.66 0,1.32 0,2 0.66,0.33 1.32,0.66 2,1 -0.33,0.66 -0.66,1.32 -1,2 -1.65,0 -3.3,0 -5,0 0,-1.32 0,-2.64 0,-4 2,-1 2,-1 4,-1 z"
     fill="#d4dad6"
     id="path211" />
  <path
     d="m 323.41368,168.40051 c 2.74278,3.1999 4.63028,6.00499 6,10 -3.45576,-1.15192 -4.19828,-1.91135 -6,-5 -0.1875,-2.75 -0.1875,-2.75 0,-5 z"
     fill="#cfcfcd"
     id="path212" />
  <path
     d="m 122.41368,159.40051 c 0.99,0.99 1.98,1.98 3,3 -0.99,0.495 -0.99,0.495 -2,1 0,0.99 0,1.98 0,3 -0.66,0 -1.32,0 -2,0 0,-0.66 0,-1.32 0,-2 -0.66,-0.33 -1.32,-0.66 -2,-1 0.99,-1.32 1.98,-2.64 3,-4 z"
     fill="#dddde4"
     id="path213" />
  <path
     d="m 139.41368,148.40051 c 0.26813,0.5775 0.53625,1.155 0.8125,1.75 1.2047,2.28258 2.59548,4.22379 4.1875,6.25 -3,0 -3,0 -6,-1 -0.0425,-1.99955 -0.0408,-4.00042 0,-6 0.33,-0.33 0.66,-0.66 1,-1 z"
     fill="#dddeda"
     id="path214" />
  <path
     d="m 159.41368,144.40051 c 0.33,0.66 0.66,1.32 1,2 -0.66,-0.33 -1.32,-0.66 -2,-1 0.33,-0.33 0.66,-0.66 1,-1 z m 0,3 c -2.62647,1.75098 -5.28775,3.38731 -8,5 0,-0.99 0,-1.98 0,-3 4.28099,-3.23967 4.28099,-3.23967 8,-2 z"
     fill="#1a1c1e"
     id="path215" />
  <path
     d="m 285.41368,134.40051 c 2.475,0.99 2.475,0.99 5,2 0,0.99 0,1.98 0,3 -0.99,0.33 -1.98,0.66 -3,1 -0.99,-1.65 -1.98,-3.3 -3,-5 0.33,-0.33 0.66,-0.66 1,-1 z"
     fill="#d3d2d0"
     id="path216" />
  <path
     d="m 166.41368,135.40051 c 1.65,0 3.3,0 5,0 0.66,1.32 1.32,2.64 2,4 -2.31,0.66 -4.62,1.32 -7,2 0.18563,-0.61875 0.37125,-1.2375 0.5625,-1.875 0.67436,-2.1666 0.67436,-2.1666 -0.5625,-4.125 z"
     fill="#d5d9d4"
     id="path217" />
  <path
     d="m 110.41368,129.40051 c 1.46727,3.81489 0.43336,6.29011 -1,10 -0.66,0 -1.32,0 -2,0 -0.33,-0.66 -0.66,-1.32 -1,-2 -0.66,-0.33 -1.32,-0.66 -2,-1 0.80438,-0.59813 1.60875,-1.19625 2.4375,-1.8125 2.78578,-1.99698 2.78578,-1.99698 3.5625,-5.1875 z"
     fill="#cfd3db"
     id="path218" />
  <path
     d="m 277.41368,363.40051 c 0,0.66 0,1.32 0,2 -2.81769,2.17365 -4.21907,3.08677 -7.8125,2.6875 -0.72187,-0.22688 -1.44375,-0.45375 -2.1875,-0.6875 3.13732,-2.09155 6.14535,-4 10,-4 z"
     fill="#cacdc7"
     id="path220" />
  <path
     d="m 320.41368,334.40051 c 0.66,0.33 1.32,0.66 2,1 -0.33,1.65 -0.66,3.3 -1,5 -1.32,0.33 -2.64,0.66 -4,1 -0.33,-0.66 -0.66,-1.32 -1,-2 1.32,-1.65 2.64,-3.3 4,-5 z"
     fill="#e9ecef"
     id="path221" />
  <path
     d="m 141.41368,312.40051 c 0.99,0 1.98,0 3,0 0.66,1.32 1.32,2.64 2,4 -3.01032,0.93423 -3.8665,1.0445 -7,0 0.66,-1.32 1.32,-2.64 2,-4 z"
     fill="#040a0c"
     id="path222" />
  <path
     d="m 343.41368,297.40051 c 0.99,0.33 1.98,0.66 3,1 -0.66,1.98 -1.32,3.96 -2,6 -0.99,0 -1.98,0 -3,0 0.875,-4.75 0.875,-4.75 2,-7 z"
     fill="#eff2fa"
     id="path223" />
  <path
     d="m 94.413681,252.40051 c 0.66,0.33 1.32,0.66 2,1 0.414062,2.28515 0.414062,2.28515 0.625,5.0625 0.07476,0.9191 0.149531,1.8382 0.226562,2.78515 0.07348,1.06541 0.07348,1.06541 0.148438,2.15235 -2.170945,-2.17095 -2.4863,-3.15753 -3.1875,-6.0625 -0.17918,-0.71285 -0.35836,-1.42571 -0.542969,-2.16016 -0.08894,-0.58652 -0.177891,-1.17305 -0.269531,-1.77734 0.33,-0.33 0.66,-0.66 1,-1 z"
     fill="#272927"
     id="path224" />
  <path
     d="m 323.41368,206.40051 c 0.99,0 1.98,0 3,0 0.66,2.64 1.32,5.28 2,8 -0.66,0 -1.32,0 -2,0 0,-0.66 0,-1.32 0,-2 -0.66,0 -1.32,0 -2,0 -0.33,-1.98 -0.66,-3.96 -1,-6 z"
     fill="#1b1f27"
     id="path225" />
  <path
     d="m 87.413681,197.40051 c 0.66,1.32 1.32,2.64 2,4 -1.32,1.32 -2.64,2.64 -4,4 -0.125,-2.875 -0.125,-2.875 0,-6 0.66,-0.66 1.32,-1.32 2,-2 z"
     fill="#040b11"
     id="path226" />
  <path
     d="m 116.41368,186.40051 c 0.99,0.33 1.98,0.66 3,1 -0.66,1.98 -1.32,3.96 -2,6 -1.32,-1.65 -2.64,-3.3 -4,-5 0.99,-0.66 1.98,-1.32 3,-2 z"
     fill="#e5e6e9"
     id="path227" />
  <path
     d="m 111.41368,150.40051 c 0.33,0.99 0.66,1.98 1,3 -2.97,2.475 -2.97,2.475 -6,5 0.66,-2.31 1.32,-4.62 2,-7 0.99,0.33 1.98,0.66 3,1 0,-0.66 0,-1.32 0,-2 z"
     fill="#eeeeec"
     id="path228" />
  <path
     d="m 91.413681,140.40051 c 2.475,0.99 2.475,0.99 5,2 -0.33,0.99 -0.66,1.98 -1,3 -0.99,0.33 -1.98,0.66 -3,1 -0.66,-0.66 -1.32,-1.32 -2,-2 0.375,-2.125 0.375,-2.125 1,-4 z"
     fill="#e2e4dd"
     id="path229" />
  <path
     d="m 425.41368,40.400507 c 1.98,0.66 3.96,1.32 6,2 -3.0881,1.764627 -4.23312,2 -8,2 0.66,-1.32 1.32,-2.64 2,-4 z"
     fill="#14191b"
     id="path230" />
  <path
     d="m 295.41368,351.40051 c 0,0.66 0,1.32 0,2 -2.3125,1.125 -2.3125,1.125 -5,2 -0.99,-0.66 -1.98,-1.32 -3,-2 3.22792,-2.15195 4.28401,-2.20087 8,-2 z"
     fill="#131b1a"
     id="path234" />
  <path
     d="m 299.41368,342.40051 c 1.65,0 3.3,0 5,0 0,1.32 0,2.64 0,4 -0.99,0.495 -0.99,0.495 -2,1 0,-0.99 0,-1.98 0,-3 -0.99,0.33 -1.98,0.66 -3,1 0,-0.99 0,-1.98 0,-3 z"
     fill="#181f21"
     id="path235" />
  <path
     d="m 225.41368,312.40051 c 0.66,1.32 1.32,2.64 2,4 -1.32,0.33 -2.64,0.66 -4,1 -0.33,-0.99 -0.66,-1.98 -1,-3 -0.66,-0.33 -1.32,-0.66 -2,-1 2,-1 2,-1 5,-1 z"
     fill="#cdd4d9"
     id="path236" />
  <path
     d="m 319.41368,308.40051 c -0.3125,1.875 -0.3125,1.875 -1,4 -0.99,0.66 -1.98,1.32 -3,2 -0.33,-1.32 -0.66,-2.64 -1,-4 3,-2 3,-2 5,-2 z"
     fill="#eeebe9"
     id="path237" />
  <path
     d="m 326.41368,302.40051 c 1.65,1.65 3.3,3.3 5,5 -0.66,0.66 -1.32,1.32 -2,2 -1.98,-1.65 -3.96,-3.3 -6,-5 0.99,-0.66 1.98,-1.32 3,-2 z"
     fill="#0d1e26"
     id="path238" />
  <path
     d="m 117.41368,260.40051 c 3,0 3,0 4.6875,1.4375 1.3125,1.5625 1.3125,1.5625 1.3125,2.5625 -1.65,0 -3.3,0 -5,0 -0.33,-1.32 -0.66,-2.64 -1,-4 z m -1,4 c 0.66,0 1.32,0 2,0 -0.33,0.66 -0.66,1.32 -1,2 -0.33,-0.66 -0.66,-1.32 -1,-2 z"
     fill="#d5d8d2"
     id="path239" />
  <path
     d="m 101.41368,191.40051 c 0.66,0 1.32,0 2,0 -0.54724,3.37462 -1.0549,5.08235 -3,8 -0.659999,-1.32 -1.319999,-2.64 -1.999999,-4 0.66,0 1.32,0 1.999999,0 0.33,-1.32 0.66,-2.64 1,-4 z"
     fill="#131f28"
     id="path240" />
  <path
     d="m 137.41368,162.40051 c 0.36923,4.55384 0.36923,4.55384 -1.5,6.8125 -0.495,0.39187 -0.99,0.78375 -1.5,1.1875 -0.66,-1.32 -1.32,-2.64 -2,-4 3.875,-4 3.875,-4 5,-4 z"
     fill="#25282d"
     id="path241" />
  <path
     d="m 124.41368,153.40051 c 0.99,0.66 1.98,1.32 3,2 -1.8125,2 -1.8125,2 -4,4 -0.99,0 -1.98,0 -3,0 0.33,-0.99 0.66,-1.98 1,-3 0.99,-0.33 1.98,-0.66 3,-1 0,-0.66 0,-1.32 0,-2 z"
     fill="#03040d"
     id="path242" />
  <path
     d="m 274.41368,113.40051 c 3.73488,0.49798 5.81238,0.87491 9,3 -0.33,0.66 -0.66,1.32 -1,2 -2.64,-1.32 -5.28,-2.64 -8,-4 0,-0.33 0,-0.66 0,-1 z"
     fill="#030809"
     id="path243" />
  <path
     d="m 118.41368,77.400507 c 0.33,0.66 0.66,1.32 1,2 0.66,0.33 1.32,0.66 2,1 -3,2 -3,2 -6,3 -0.66,-0.66 -1.32,-1.32 -2,-2 1.65,-1.32 3.3,-2.64 5,-4 z"
     fill="#1c2321"
     id="path244" />
  <path
     d="m 402.41368,481.40051 c 2.875,-0.125 2.875,-0.125 6,0 0.66,0.66 1.32,1.32 2,2 -2.31,0.33 -4.62,0.66 -7,1 -0.33,-0.99 -0.66,-1.98 -1,-3 z"
     fill="#1d2120"
     id="path245" />
  <path
     d="m 54.413681,478.40051 c 2.125,0.375 2.125,0.375 4,1 -0.99,0 -1.98,0 -3,0 0,0.66 0,1.32 0,2 0.66,0.66 1.32,1.32 2,2 -1.65,0 -3.3,0 -5,0 0,-3 0,-3 2,-5 z"
     fill="#060d10"
     id="path246" />
  <path
     d="m 436.41368,447.40051 c 0.66,0.33 1.32,0.66 2,1 -2.57785,2.64752 -4.91648,4.94432 -8,7 1.44254,-3.36592 3.33265,-5.51047 6,-8 z"
     fill="#030705"
     id="path247" />
  <path
     d="m 268.41368,376.40051 c -0.66,0.66 -1.32,1.32 -2,2 0.33,0.66 0.66,1.32 1,2 -1.32,0 -2.64,0 -4,0 -0.33,-1.32 -0.66,-2.64 -1,-4 3.75,-1.125 3.75,-1.125 6,0 z"
     fill="#eaebe5"
     id="path248" />
  <path
     d="m 122.41368,338.40051 c 0.66,0 1.32,0 2,0 2,2 2,2 4,5 -0.33,0.66 -0.66,1.32 -1,2 -1.98,-1.65 -3.96,-3.3 -6,-5 0.33,-0.66 0.66,-1.32 1,-2 z"
     fill="#1c1e20"
     id="path249" />
  <path
     d="m 149.41368,326.40051 c 1.65,0.99 3.3,1.98 5,3 -1.875,1.0625 -1.875,1.0625 -4,2 -0.66,-0.33 -1.32,-0.66 -2,-1 0,-3 0,-3 1,-4 z"
     fill="#dee2de"
     id="path250" />
  <path
     d="m 269.41368,319.40051 c 0.66,0.66 1.32,1.32 2,2 -0.375,2.625 -0.375,2.625 -1,5 -0.66,0 -1.32,0 -2,0 0,-0.66 0,-1.32 0,-2 -0.66,-0.33 -1.32,-0.66 -2,-1 0.33,-0.66 0.66,-1.32 1,-2 0.66,0 1.32,0 2,0 0,-0.66 0,-1.32 0,-2 z"
     fill="#d8dfd6"
     id="path251" />
  <path
     d="m 98.413681,297.40051 c -1.06547,2.13094 -2.291598,3.36587 -4,5 -0.66,-1.65 -1.32,-3.3 -2,-5 3,-1 3,-1 6,0 z"
     fill="#171a1d"
     id="path252" />
  <path
     d="m 368.41368,269.40051 c 0.33,0 0.66,0 1,0 0.25,7.625 0.25,7.625 -2,11 -1.26265,-4.293 -0.6295,-6.87832 1,-11 z"
     fill="#e4e4e1"
     id="path253" />
  <path
     d="m 268.41368,229.40051 c 1.98,0.66 3.96,1.32 6,2 -0.99,1.485 -0.99,1.485 -2,3 -0.99,-0.33 -1.98,-0.66 -3,-1 -0.6875,-2.0625 -0.6875,-2.0625 -1,-4 z"
     fill="#111721"
     id="path254" />
  <path
     d="m 108.41368,174.40051 c 1.32,0.33 2.64,0.66 4,1 -1.375,2.5 -1.375,2.5 -3,5 -0.66,0 -1.32,0 -2,0 -0.33,-0.99 -0.66,-1.98 -1,-3 0.66,-0.66 1.32,-1.32 2,-2 0,-0.33 0,-0.66 0,-1 z"
     fill="#16272e"
     id="path255" />
  <path
     d="m 128.41368,155.40051 c 0.33,1.32 0.66,2.64 1,4 -1.875,0.625 -1.875,0.625 -4,1 -0.66,-0.66 -1.32,-1.32 -2,-2 2.75,-3 2.75,-3 5,-3 z"
     fill="#dedfe6"
     id="path256" />
  <path
     d="m 144.41368,150.40051 c 1.32,0.33 2.64,0.66 4,1 -0.99,1.32 -1.98,2.64 -3,4 -0.99,-0.33 -1.98,-0.66 -3,-1 0.66,-1.32 1.32,-2.64 2,-4 z"
     fill="#ecedeb"
     id="path257" />
  <path
     d="m 154.41368,145.40051 c 0,0.99 0,1.98 0,3 -1.65,0.66 -3.3,1.32 -5,2 -0.33,-1.32 -0.66,-2.64 -1,-4 0.99,0.33 1.98,0.66 3,1 0.99,-0.66 1.98,-1.32 3,-2 z"
     fill="#eae9e7"
     id="path258" />
  <path
     d="m 97.413681,131.40051 c 0.33,0 0.66,0 1,0 0,2.31 0,4.62 0,7 0.66,0 1.32,0 1.999999,0 -0.659999,1.65 -1.319999,3.3 -1.999999,5 -0.33,0 -0.66,0 -1,0 0,-3.96 0,-7.92 0,-12 z"
     fill="#040c10"
     id="path259" />
  <path
     d="m 132.41368,127.40051 c 0.99,0.33 1.98,0.66 3,1 -1.75,3.875 -1.75,3.875 -4,5 -0.33,-1.65 -0.66,-3.3 -1,-5 0.66,-0.33 1.32,-0.66 2,-1 z"
     fill="#e8eee7"
     id="path260" />
  <path
     d="m 380.41368,51.400507 c 0.33,0 0.66,0 1,0 0.36923,7.384615 0.36923,7.384615 -1.5,10.5 -0.495,0.495 -0.99,0.99 -1.5,1.5 -0.26253,-4.331683 0.70757,-7.880362 2,-12 z"
     fill="#151c1e"
     id="path261" />
</svg>
